<?xml version="1.0" encoding="utf-8"?>
<!-- Generator: Adobe Illustrator 26.0.3, SVG Export Plug-In . SVG Version: 6.00 Build 0)  -->
<svg version="1.1" id="thinLine" xmlns="http://www.w3.org/2000/svg" xmlns:xlink="http://www.w3.org/1999/xlink" x="0px" y="0px"
	 viewBox="0 0 120 30" style="enable-background:new 0 0 120 30;" xml:space="preserve">
<style type="text/css">
	.st0{display:none;}
	.st1{display:inline;}
</style>
<g class="st0">
	<g class="st1">
		<path d="M2.3,23.21c-1.26,0.54-2.52,1.1-3.77,1.68c-0.07-0.15-0.14-0.3-0.21-0.45c0.11-0.06,0.24-0.13,0.38-0.21
			c0.14-0.07,0.25-0.15,0.33-0.22c0.13-0.11,0.2-0.23,0.23-0.36c0.02-0.13,0-0.28-0.08-0.45c-0.52-1.16-1.05-2.32-1.57-3.48
			c-0.22-0.48-0.52-0.79-0.9-0.93c-0.39-0.14-0.77-0.12-1.16,0.06c-0.28,0.13-0.52,0.29-0.73,0.48c-0.2,0.19-0.38,0.38-0.51,0.58
			c-0.13,0.2-0.21,0.38-0.26,0.54c-0.04,0.16-0.07,0.29-0.09,0.39c0.62,1.28,1.24,2.56,1.85,3.85c0.07,0.15,0.17,0.26,0.29,0.33
			c0.12,0.07,0.26,0.09,0.43,0.08c0.14-0.01,0.27-0.03,0.4-0.07c0.13-0.03,0.27-0.08,0.42-0.14c0.07,0.15,0.14,0.3,0.21,0.45
			c-1.24,0.59-2.48,1.19-3.71,1.81c-0.07-0.15-0.15-0.3-0.22-0.44c0.11-0.07,0.23-0.14,0.35-0.21c0.12-0.07,0.22-0.14,0.29-0.21
			c0.12-0.11,0.19-0.24,0.22-0.37c0.02-0.14-0.01-0.29-0.09-0.45c-1.28-2.58-2.56-5.17-3.84-7.75c-0.08-0.15-0.19-0.29-0.35-0.4
			c-0.16-0.11-0.33-0.17-0.5-0.18c-0.13-0.01-0.32,0.04-0.58,0.14c-0.26,0.1-0.47,0.19-0.63,0.26c-0.07-0.14-0.15-0.29-0.22-0.43
			c0.98-0.56,1.96-1.11,2.94-1.65c0.06,0.02,0.11,0.03,0.17,0.05c0.75,1.56,1.5,3.11,2.25,4.67c0.01-0.01,0.02-0.01,0.03-0.02
			c0.1-0.23,0.2-0.44,0.29-0.63c0.09-0.18,0.22-0.4,0.4-0.64c0.15-0.21,0.35-0.41,0.6-0.61c0.25-0.2,0.54-0.38,0.89-0.54
			c0.72-0.33,1.36-0.39,1.92-0.17c0.56,0.21,0.99,0.68,1.31,1.4c0.52,1.18,1.03,2.36,1.55,3.54c0.07,0.16,0.16,0.28,0.27,0.35
			c0.11,0.07,0.25,0.1,0.43,0.09c0.14-0.01,0.26-0.03,0.37-0.05c0.11-0.02,0.24-0.06,0.4-0.12C2.17,22.91,2.24,23.06,2.3,23.21z"/>
		<path d="M10.37,18.18c-0.13,0.68-0.42,1.28-0.85,1.81c-0.43,0.53-1,0.93-1.71,1.2c-0.63,0.24-1.21,0.36-1.76,0.35
			c-0.55-0.01-1.04-0.12-1.48-0.33c-0.44-0.21-0.83-0.51-1.17-0.89C3.07,19.93,2.8,19.49,2.59,19c-0.18-0.45-0.28-0.92-0.29-1.41
			c-0.01-0.5,0.07-0.98,0.26-1.46c0.18-0.46,0.46-0.88,0.85-1.27c0.39-0.39,0.87-0.69,1.45-0.92C5.45,13.71,6,13.6,6.49,13.6
			c0.49,0,0.91,0.09,1.28,0.28c0.35,0.17,0.65,0.42,0.9,0.73c0.25,0.31,0.45,0.68,0.6,1.1c0.06,0.16,0.11,0.31,0.17,0.47
			c-1.78,0.64-3.55,1.3-5.31,2.01c0.18,0.45,0.4,0.84,0.64,1.17c0.25,0.33,0.53,0.59,0.85,0.79c0.31,0.19,0.67,0.3,1.06,0.33
			c0.39,0.03,0.82-0.05,1.28-0.22c0.47-0.18,0.84-0.43,1.11-0.75c0.27-0.32,0.47-0.8,0.61-1.43C9.93,18.11,10.15,18.14,10.37,18.18z
			 M7.62,16.17c-0.1-0.26-0.23-0.53-0.39-0.82c-0.16-0.28-0.34-0.5-0.53-0.66c-0.21-0.17-0.45-0.28-0.72-0.33
			c-0.27-0.05-0.58-0.01-0.93,0.12c-0.58,0.22-0.98,0.62-1.2,1.17c-0.22,0.56-0.2,1.21,0.06,1.94C5.13,17.1,6.37,16.63,7.62,16.17z"
			/>
		<path d="M20.16,16.75c-0.23,0.15-0.43,0.28-0.61,0.39c-0.18,0.11-0.39,0.19-0.63,0.26c-0.42,0.12-0.78,0.13-1.08,0.03
			c-0.3-0.1-0.54-0.31-0.71-0.62c-0.02,0-0.03,0.01-0.05,0.01c-0.25,0.45-0.54,0.83-0.88,1.14c-0.34,0.31-0.79,0.55-1.35,0.73
			c-0.59,0.19-1.13,0.19-1.62,0c-0.49-0.19-0.83-0.55-1.01-1.07c-0.09-0.27-0.13-0.53-0.12-0.77c0.01-0.24,0.08-0.48,0.2-0.71
			c0.09-0.19,0.22-0.38,0.41-0.56c0.19-0.19,0.37-0.35,0.54-0.48c0.22-0.16,0.67-0.48,1.36-0.94c0.69-0.46,1.15-0.79,1.38-0.99
			c-0.07-0.24-0.14-0.48-0.22-0.71c-0.02-0.06-0.07-0.18-0.16-0.35c-0.08-0.17-0.2-0.32-0.35-0.44c-0.17-0.14-0.37-0.25-0.62-0.32
			c-0.25-0.07-0.56-0.04-0.93,0.08c-0.26,0.08-0.49,0.2-0.68,0.34c-0.2,0.15-0.33,0.27-0.39,0.38c0.03,0.1,0.1,0.23,0.22,0.4
			c0.11,0.17,0.2,0.33,0.25,0.49c0.05,0.17,0.02,0.35-0.11,0.54c-0.13,0.2-0.35,0.34-0.66,0.45c-0.28,0.09-0.51,0.08-0.69-0.05
			c-0.19-0.12-0.32-0.29-0.39-0.5c-0.07-0.22-0.05-0.46,0.06-0.72c0.11-0.26,0.29-0.52,0.53-0.77c0.21-0.22,0.48-0.43,0.81-0.64
			c0.33-0.21,0.67-0.37,1.01-0.48c0.47-0.15,0.9-0.25,1.27-0.3c0.37-0.05,0.73-0.03,1.07,0.07c0.34,0.09,0.63,0.27,0.87,0.53
			c0.24,0.26,0.43,0.63,0.57,1.12c0.2,0.69,0.37,1.3,0.51,1.84c0.14,0.54,0.3,1.12,0.49,1.75c0.06,0.19,0.14,0.33,0.24,0.42
			c0.11,0.09,0.25,0.15,0.42,0.18c0.09,0.02,0.23,0.01,0.41-0.04c0.18-0.04,0.36-0.09,0.54-0.15
			C20.07,16.44,20.12,16.59,20.16,16.75z M16.18,13.77c-0.43,0.26-0.81,0.51-1.12,0.73c-0.32,0.23-0.6,0.47-0.84,0.74
			c-0.22,0.25-0.37,0.51-0.46,0.79c-0.09,0.27-0.08,0.56,0.02,0.87c0.13,0.4,0.34,0.65,0.64,0.76c0.29,0.11,0.62,0.11,0.98-0.01
			c0.38-0.12,0.69-0.31,0.93-0.57c0.24-0.26,0.43-0.53,0.56-0.82C16.65,15.44,16.42,14.61,16.18,13.77z"/>
		<path d="M25.58,15.47c-1.31,0.32-2.61,0.65-3.91,1c-0.04-0.16-0.09-0.32-0.13-0.48c0.12-0.04,0.25-0.09,0.39-0.14
			c0.14-0.05,0.25-0.1,0.34-0.15c0.14-0.08,0.23-0.19,0.28-0.32c0.05-0.13,0.05-0.28,0-0.46c-0.73-2.77-1.45-5.55-2.18-8.32
			c-0.05-0.17-0.13-0.33-0.26-0.46c-0.13-0.13-0.28-0.22-0.45-0.27c-0.12-0.03-0.33-0.03-0.62-0.01c-0.29,0.03-0.52,0.06-0.69,0.1
			c-0.04-0.15-0.09-0.31-0.13-0.46c1.07-0.35,2.14-0.69,3.21-1.02c0.05,0.03,0.1,0.05,0.15,0.08c0.83,3.29,1.65,6.59,2.48,9.88
			c0.04,0.17,0.11,0.3,0.21,0.39c0.1,0.09,0.23,0.15,0.41,0.17c0.13,0.02,0.26,0.03,0.38,0.02c0.12,0,0.26-0.02,0.41-0.05
			C25.5,15.15,25.54,15.31,25.58,15.47z"/>
		<path d="M32.36,13.67c-0.33,0.2-0.65,0.38-0.95,0.53c-0.3,0.15-0.68,0.28-1.14,0.37c-0.68,0.14-1.19,0.09-1.53-0.16
			c-0.34-0.25-0.58-0.65-0.7-1.21c-0.36-1.64-0.72-3.27-1.09-4.91c-0.51,0.11-1.01,0.23-1.52,0.34c-0.05-0.23-0.11-0.47-0.16-0.7
			c0.52-0.12,1.04-0.24,1.56-0.35c-0.17-0.75-0.33-1.5-0.5-2.26c0.53-0.12,1.06-0.23,1.59-0.34c0.16,0.75,0.32,1.51,0.47,2.26
			c0.81-0.17,1.63-0.33,2.44-0.49c0.05,0.24,0.09,0.47,0.14,0.71c-0.8,0.16-1.61,0.32-2.41,0.49c0.28,1.35,0.57,2.71,0.85,4.06
			c0.06,0.3,0.13,0.56,0.2,0.75c0.07,0.2,0.16,0.36,0.29,0.5c0.12,0.12,0.27,0.2,0.46,0.24c0.19,0.04,0.43,0.03,0.73-0.03
			c0.14-0.03,0.34-0.08,0.6-0.15c0.26-0.07,0.45-0.14,0.55-0.19C32.29,13.31,32.32,13.49,32.36,13.67z"/>
		<path d="M42.93,12.37c-1.34,0.16-2.68,0.33-4.01,0.53c-0.02-0.16-0.05-0.33-0.07-0.49c0.13-0.03,0.27-0.06,0.42-0.09
			c0.15-0.03,0.28-0.07,0.37-0.11c0.15-0.07,0.25-0.16,0.31-0.28c0.06-0.12,0.08-0.27,0.05-0.45c-0.17-1.26-0.34-2.52-0.52-3.78
			c-0.07-0.52-0.27-0.91-0.59-1.15c-0.32-0.24-0.69-0.34-1.1-0.28c-0.3,0.04-0.57,0.13-0.82,0.25c-0.24,0.12-0.46,0.26-0.64,0.41
			c-0.18,0.15-0.31,0.3-0.39,0.44c-0.08,0.14-0.15,0.26-0.19,0.35c0.23,1.4,0.45,2.81,0.68,4.21c0.03,0.17,0.09,0.3,0.18,0.4
			c0.09,0.1,0.22,0.16,0.38,0.2c0.13,0.03,0.26,0.05,0.39,0.05c0.13,0,0.28,0,0.43-0.01c0.02,0.16,0.05,0.33,0.08,0.49
			c-1.33,0.2-2.66,0.42-3.98,0.66c-0.03-0.16-0.06-0.33-0.09-0.49c0.12-0.03,0.25-0.07,0.39-0.1c0.13-0.04,0.25-0.08,0.33-0.12
			c0.15-0.07,0.25-0.17,0.3-0.29c0.06-0.12,0.07-0.28,0.04-0.45c-0.49-2.84-0.98-5.68-1.47-8.52c-0.03-0.17-0.1-0.33-0.22-0.48
			c-0.12-0.15-0.26-0.26-0.42-0.32c-0.12-0.05-0.31-0.06-0.59-0.04c-0.27,0.02-0.49,0.04-0.66,0.06c-0.03-0.16-0.06-0.32-0.09-0.47
			c1.07-0.25,2.14-0.49,3.22-0.72c0.05,0.03,0.1,0.06,0.14,0.09c0.28,1.7,0.55,3.41,0.83,5.11c0.01,0,0.02,0,0.03-0.01
			c0.16-0.19,0.31-0.37,0.45-0.52c0.14-0.15,0.32-0.32,0.55-0.49c0.2-0.15,0.45-0.29,0.73-0.42c0.29-0.12,0.62-0.21,0.99-0.27
			c0.77-0.11,1.39,0.02,1.85,0.38c0.47,0.36,0.74,0.94,0.84,1.72c0.16,1.28,0.32,2.55,0.48,3.83c0.02,0.17,0.07,0.31,0.16,0.41
			c0.08,0.1,0.21,0.17,0.38,0.21c0.13,0.03,0.25,0.05,0.36,0.06c0.11,0.01,0.24,0.01,0.41,0C42.89,12.04,42.91,12.2,42.93,12.37z"/>
		<path d="M61.28,5.14c-0.34,0.02-0.69,0.08-1.03,0.17c-0.35,0.09-0.61,0.24-0.8,0.44c-0.12,0.12-0.24,0.3-0.36,0.54
			c-0.12,0.24-0.27,0.52-0.44,0.84c-0.17,0.32-0.34,0.64-0.51,0.95c-0.17,0.31-0.39,0.63-0.66,0.94c0.23,0.24,0.51,0.5,0.84,0.77
			c0.33,0.28,0.61,0.48,0.84,0.61c0.22,0.11,0.54,0.21,0.95,0.29c0.41,0.08,0.75,0.13,1.01,0.14c0,0.18,0,0.36,0,0.53
			c-1.14-0.01-2.29,0-3.43,0.01c-0.42-0.42-0.84-0.84-1.27-1.25c-0.18,0.19-0.39,0.38-0.62,0.58c-0.23,0.2-0.48,0.38-0.73,0.52
			c-0.28,0.16-0.57,0.29-0.86,0.39c-0.29,0.1-0.63,0.15-1.02,0.17c-0.41,0.02-0.82-0.01-1.23-0.1c-0.41-0.08-0.79-0.23-1.14-0.45
			c-0.34-0.21-0.62-0.49-0.84-0.84c-0.23-0.35-0.36-0.77-0.39-1.27c-0.04-0.62,0.1-1.2,0.44-1.72c0.34-0.53,1.01-1.11,2.01-1.73
			c-0.5-0.51-0.89-0.95-1.17-1.33c-0.29-0.38-0.44-0.81-0.48-1.29c-0.02-0.35,0.04-0.67,0.18-0.97c0.14-0.3,0.36-0.56,0.64-0.8
			c0.26-0.21,0.59-0.38,0.98-0.51c0.39-0.13,0.78-0.2,1.19-0.22c0.48-0.02,0.9,0.03,1.26,0.14c0.36,0.12,0.66,0.27,0.9,0.47
			c0.21,0.19,0.38,0.4,0.49,0.65c0.12,0.25,0.18,0.5,0.18,0.75c0.01,0.6-0.19,1.13-0.61,1.57c-0.42,0.45-1,0.86-1.74,1.23
			c0.57,0.62,1.12,1.18,1.65,1.69c0.53,0.51,1.03,1.01,1.51,1.51c0.37-0.54,0.65-1.05,0.86-1.53c0.2-0.48,0.31-0.9,0.3-1.26
			c0-0.16-0.14-0.29-0.41-0.37c-0.27-0.09-0.64-0.17-1.12-0.25c0-0.18-0.01-0.36-0.01-0.53c1.55-0.03,3.11-0.05,4.66-0.03
			C61.29,4.78,61.28,4.96,61.28,5.14z M55.94,9.7C55.4,9.13,54.79,8.5,54.1,7.82c-0.69-0.68-1.25-1.25-1.68-1.71
			c-0.45,0.3-0.76,0.65-0.93,1.04c-0.17,0.39-0.24,0.83-0.21,1.31c0.04,0.68,0.29,1.23,0.75,1.66c0.46,0.43,1.05,0.62,1.77,0.59
			c0.41-0.02,0.8-0.11,1.19-0.28C55.38,10.25,55.7,10.01,55.94,9.7z M55.06,2.76c-0.02-0.51-0.16-0.9-0.44-1.16
			c-0.27-0.26-0.66-0.39-1.15-0.37c-0.28,0.01-0.51,0.07-0.69,0.17c-0.18,0.1-0.33,0.23-0.45,0.38c-0.11,0.15-0.19,0.3-0.23,0.46
			c-0.05,0.16-0.06,0.31-0.06,0.43c0.02,0.35,0.14,0.69,0.37,1.03c0.23,0.34,0.57,0.76,1.04,1.24c0.58-0.32,1-0.65,1.25-0.99
			C54.96,3.61,55.08,3.21,55.06,2.76z"/>
		<path d="M76.06,8.44c-0.06,0.52-0.2,1.02-0.44,1.5c-0.24,0.48-0.55,0.88-0.92,1.2c-0.43,0.36-0.9,0.62-1.42,0.76
			c-0.52,0.15-1.1,0.2-1.72,0.15c-0.52-0.04-1.01-0.17-1.47-0.38c-0.46-0.21-0.86-0.5-1.21-0.86c-0.34-0.36-0.61-0.78-0.8-1.28
			c-0.19-0.49-0.27-1.04-0.24-1.64c0.06-1.16,0.49-2.09,1.32-2.78c0.82-0.69,1.88-0.99,3.15-0.89c1.21,0.1,2.18,0.54,2.88,1.31
			C75.9,6.31,76.18,7.28,76.06,8.44z M74.3,8.27c0.04-0.37,0.03-0.77-0.02-1.2c-0.05-0.43-0.14-0.79-0.29-1.1
			c-0.16-0.33-0.38-0.6-0.66-0.81c-0.29-0.21-0.65-0.34-1.08-0.37c-0.45-0.04-0.84,0.03-1.17,0.2c-0.33,0.17-0.61,0.41-0.82,0.73
			c-0.21,0.29-0.36,0.63-0.46,1.02c-0.1,0.39-0.16,0.76-0.18,1.13c-0.03,0.48-0.02,0.93,0.05,1.34c0.06,0.41,0.18,0.79,0.35,1.12
			c0.17,0.33,0.39,0.6,0.66,0.81c0.27,0.2,0.62,0.32,1.04,0.36c0.7,0.06,1.27-0.2,1.74-0.77C73.91,10.15,74.19,9.34,74.3,8.27z"/>
		<path d="M84.98,6.95c-0.04,0.25-0.15,0.47-0.33,0.64c-0.17,0.17-0.41,0.23-0.71,0.19c-0.32-0.05-0.55-0.16-0.7-0.33
			c-0.15-0.17-0.21-0.34-0.18-0.52c0.02-0.11,0.04-0.21,0.08-0.29c0.03-0.09,0.07-0.17,0.1-0.26c-0.27-0.04-0.6,0.01-0.99,0.14
			c-0.39,0.14-0.74,0.36-1.04,0.67c-0.2,1.43-0.4,2.85-0.6,4.28c-0.02,0.17-0.01,0.32,0.05,0.44c0.06,0.12,0.17,0.22,0.32,0.3
			c0.13,0.07,0.3,0.13,0.52,0.19c0.21,0.06,0.4,0.1,0.56,0.14c-0.02,0.16-0.05,0.33-0.07,0.49c-1.43-0.22-2.87-0.41-4.3-0.59
			c0.02-0.16,0.04-0.33,0.06-0.49c0.13,0.01,0.26,0.01,0.4,0.02c0.14,0.01,0.26,0,0.36-0.02c0.16-0.03,0.29-0.09,0.38-0.19
			c0.09-0.1,0.15-0.24,0.17-0.42c0.2-1.51,0.39-3.03,0.59-4.54c0.02-0.15,0-0.31-0.07-0.47c-0.06-0.16-0.17-0.29-0.3-0.4
			c-0.1-0.07-0.23-0.13-0.37-0.18c-0.15-0.05-0.31-0.08-0.48-0.12c0.02-0.16,0.04-0.33,0.06-0.49c0.96,0.06,1.92,0.13,2.87,0.21
			c0.04,0.04,0.07,0.08,0.11,0.12c-0.05,0.35-0.1,0.69-0.15,1.04c0.01,0,0.03,0,0.04,0.01c0.41-0.35,0.86-0.6,1.33-0.74
			c0.47-0.14,0.89-0.19,1.25-0.13c0.36,0.06,0.64,0.21,0.84,0.45C84.97,6.31,85.04,6.6,84.98,6.95z"/>
		<path d="M92.56,14.24c0.18,0.24,0.3,0.49,0.37,0.75c0.07,0.26,0.07,0.57-0.01,0.92c-0.08,0.35-0.24,0.65-0.48,0.92
			c-0.24,0.27-0.55,0.47-0.94,0.62c-0.41,0.15-0.88,0.23-1.4,0.26c-0.52,0.02-1.15-0.04-1.88-0.19c-1.2-0.24-2.06-0.57-2.6-1
			c-0.54-0.43-0.76-0.96-0.65-1.58c0.09-0.51,0.38-0.87,0.87-1.08c0.49-0.21,1.08-0.27,1.77-0.16c0.01-0.03,0.01-0.07,0.02-0.1
			c-0.16-0.08-0.32-0.16-0.48-0.26c-0.16-0.1-0.3-0.21-0.41-0.32c-0.12-0.13-0.22-0.27-0.28-0.43c-0.06-0.16-0.08-0.34-0.04-0.55
			c0.05-0.26,0.2-0.48,0.44-0.67c0.25-0.18,0.6-0.31,1.06-0.39c0.01-0.04,0.01-0.07,0.02-0.11c-0.5-0.32-0.86-0.69-1.1-1.09
			c-0.24-0.4-0.31-0.83-0.23-1.29c0.12-0.69,0.52-1.21,1.2-1.54c0.68-0.33,1.5-0.41,2.44-0.22c0.26,0.05,0.51,0.13,0.76,0.22
			c0.25,0.1,0.5,0.21,0.74,0.33c0.99,0.21,1.97,0.43,2.96,0.65c-0.05,0.23-0.11,0.47-0.16,0.7c-0.66-0.15-1.32-0.3-1.98-0.44
			c0,0.01-0.01,0.03-0.01,0.04c0.16,0.26,0.27,0.52,0.32,0.8c0.05,0.28,0.04,0.54-0.01,0.78c-0.14,0.64-0.56,1.11-1.24,1.42
			c-0.69,0.31-1.41,0.39-2.19,0.24c-0.34-0.07-0.67-0.13-1.01-0.2c-0.14,0.01-0.28,0.06-0.44,0.14c-0.16,0.08-0.26,0.2-0.29,0.38
			c-0.03,0.18,0,0.33,0.1,0.45c0.1,0.12,0.23,0.21,0.39,0.28c0.15,0.07,0.33,0.13,0.55,0.18c0.21,0.05,0.43,0.1,0.65,0.15
			c0.24,0.05,0.57,0.14,0.99,0.25c0.42,0.11,0.71,0.19,0.89,0.23c0.25,0.06,0.49,0.17,0.73,0.33
			C92.19,13.83,92.39,14.02,92.56,14.24z M91.53,15.87c0.06-0.27,0.04-0.52-0.06-0.72c-0.1-0.21-0.29-0.38-0.57-0.5
			c-0.15-0.05-0.46-0.14-0.93-0.27c-0.47-0.12-1.02-0.25-1.65-0.37c-0.61-0.01-1.07,0.08-1.36,0.28c-0.29,0.2-0.48,0.49-0.55,0.88
			c-0.03,0.17-0.02,0.34,0.03,0.52c0.05,0.17,0.17,0.34,0.34,0.52c0.16,0.16,0.4,0.32,0.7,0.46c0.3,0.14,0.68,0.26,1.14,0.35
			c0.79,0.16,1.44,0.15,1.95-0.03C91.08,16.8,91.4,16.43,91.53,15.87z M91.25,9.44c0.12-0.57,0.08-1.06-0.12-1.46
			c-0.2-0.4-0.55-0.65-1.04-0.75c-0.27-0.05-0.51-0.05-0.72,0.01c-0.21,0.06-0.39,0.17-0.55,0.32c-0.15,0.14-0.26,0.32-0.36,0.54
			c-0.09,0.22-0.16,0.45-0.21,0.69c-0.1,0.55-0.05,1.02,0.16,1.42c0.21,0.4,0.52,0.64,0.95,0.72c0.48,0.1,0.89,0,1.22-0.29
			C90.92,10.36,91.14,9.96,91.25,9.44z"/>
		<path d="M102.46,17.5c-0.28,0.01-0.52,0.01-0.72,0c-0.21-0.01-0.43-0.04-0.67-0.12c-0.42-0.12-0.73-0.31-0.93-0.55
			c-0.2-0.25-0.29-0.55-0.27-0.91c-0.02,0-0.03-0.01-0.05-0.01c-0.45,0.25-0.9,0.41-1.35,0.49c-0.45,0.08-0.96,0.04-1.53-0.11
			c-0.6-0.16-1.05-0.45-1.36-0.87c-0.31-0.43-0.4-0.91-0.26-1.45c0.07-0.28,0.17-0.52,0.32-0.71c0.14-0.2,0.32-0.36,0.54-0.49
			c0.17-0.11,0.39-0.2,0.65-0.25c0.26-0.06,0.49-0.09,0.71-0.11c0.27-0.02,0.82-0.04,1.64-0.06c0.82-0.02,1.39-0.05,1.69-0.1
			c0.07-0.24,0.13-0.48,0.2-0.72c0.02-0.06,0.04-0.19,0.06-0.38c0.02-0.19,0-0.38-0.06-0.56c-0.06-0.21-0.18-0.41-0.35-0.6
			c-0.17-0.19-0.45-0.34-0.82-0.44c-0.26-0.07-0.51-0.1-0.76-0.08c-0.24,0.02-0.42,0.05-0.53,0.11c-0.03,0.1-0.04,0.25-0.03,0.45
			c0,0.2-0.01,0.39-0.06,0.55c-0.04,0.17-0.17,0.3-0.39,0.4c-0.21,0.1-0.48,0.1-0.79,0.02c-0.28-0.07-0.47-0.21-0.55-0.42
			c-0.09-0.21-0.11-0.42-0.05-0.63c0.06-0.22,0.2-0.42,0.44-0.57c0.24-0.16,0.52-0.28,0.86-0.37c0.29-0.07,0.63-0.11,1.02-0.11
			c0.39,0,0.76,0.05,1.1,0.14c0.48,0.13,0.89,0.27,1.23,0.43c0.34,0.15,0.63,0.37,0.86,0.63c0.24,0.26,0.39,0.57,0.45,0.92
			c0.06,0.35,0.02,0.77-0.12,1.25c-0.2,0.69-0.39,1.3-0.56,1.83c-0.17,0.53-0.35,1.11-0.53,1.74c-0.05,0.19-0.06,0.35-0.02,0.48
			c0.04,0.13,0.13,0.26,0.25,0.38c0.07,0.07,0.19,0.13,0.36,0.19c0.17,0.06,0.35,0.11,0.54,0.17
			C102.55,17.19,102.5,17.35,102.46,17.5z M100.71,12.85c-0.51-0.01-0.95-0.01-1.34,0.01c-0.39,0.02-0.76,0.08-1.11,0.17
			c-0.32,0.09-0.59,0.23-0.81,0.42c-0.22,0.18-0.37,0.43-0.45,0.74c-0.1,0.4-0.06,0.73,0.13,0.98c0.19,0.25,0.46,0.42,0.83,0.52
			c0.39,0.1,0.75,0.11,1.09,0.03c0.34-0.09,0.64-0.22,0.91-0.39C100.21,14.51,100.46,13.68,100.71,12.85z"/>
		<path d="M112.71,21.17c-1.27-0.49-2.54-0.96-3.82-1.41c0.06-0.16,0.11-0.31,0.17-0.47c0.13,0.03,0.26,0.07,0.41,0.12
			c0.15,0.04,0.28,0.07,0.38,0.07c0.16,0.01,0.3-0.02,0.41-0.1c0.11-0.08,0.2-0.2,0.26-0.37c0.43-1.2,0.87-2.39,1.3-3.59
			c0.18-0.5,0.18-0.93,0.01-1.3c-0.18-0.37-0.46-0.62-0.86-0.76c-0.3-0.1-0.58-0.16-0.85-0.17c-0.27-0.01-0.52,0.01-0.75,0.06
			c-0.22,0.05-0.41,0.12-0.56,0.2c-0.15,0.09-0.26,0.16-0.34,0.22c-0.45,1.35-0.91,2.7-1.36,4.05c-0.05,0.16-0.06,0.31-0.02,0.44
			c0.04,0.13,0.13,0.25,0.26,0.36c0.1,0.09,0.21,0.16,0.33,0.23c0.12,0.07,0.25,0.13,0.39,0.19c-0.05,0.16-0.11,0.31-0.16,0.47
			c-1.28-0.44-2.57-0.87-3.87-1.28c0.05-0.16,0.1-0.32,0.15-0.47c0.13,0.03,0.26,0.06,0.39,0.09c0.13,0.03,0.25,0.05,0.36,0.05
			c0.16,0.01,0.3-0.03,0.41-0.12c0.11-0.08,0.19-0.21,0.24-0.38c0.47-1.45,0.94-2.9,1.41-4.36c0.05-0.16,0.06-0.32,0.02-0.49
			c-0.04-0.16-0.11-0.31-0.23-0.44c-0.09-0.09-0.2-0.17-0.34-0.25c-0.14-0.07-0.29-0.14-0.45-0.2c0.05-0.16,0.1-0.32,0.15-0.47
			c0.94,0.24,1.88,0.48,2.81,0.74c0.03,0.05,0.06,0.09,0.08,0.14c-0.11,0.33-0.22,0.66-0.33,0.99c0.01,0,0.03,0.01,0.04,0.01
			c0.17-0.07,0.38-0.15,0.64-0.24c0.25-0.09,0.49-0.16,0.7-0.19c0.25-0.04,0.52-0.05,0.84-0.03c0.31,0.02,0.65,0.1,1,0.23
			c0.79,0.28,1.3,0.71,1.53,1.27c0.22,0.56,0.2,1.18-0.06,1.87c-0.45,1.21-0.91,2.41-1.36,3.62c-0.06,0.17-0.08,0.31-0.05,0.43
			c0.03,0.13,0.1,0.24,0.24,0.36c0.11,0.1,0.21,0.17,0.29,0.22c0.08,0.05,0.21,0.12,0.37,0.19
			C112.83,20.86,112.77,21.01,112.71,21.17z"/>
		<path d="M118.22,23.42c-1.24-0.54-2.48-1.05-3.73-1.55c0.06-0.15,0.12-0.31,0.18-0.46c0.13,0.04,0.25,0.08,0.39,0.12
			c0.13,0.04,0.25,0.07,0.36,0.08c0.16,0.02,0.3-0.01,0.42-0.09c0.11-0.08,0.21-0.2,0.27-0.36c0.58-1.41,1.16-2.82,1.74-4.24
			c0.06-0.15,0.08-0.3,0.05-0.46c-0.03-0.16-0.1-0.3-0.21-0.44c-0.08-0.1-0.21-0.21-0.39-0.33c-0.18-0.12-0.35-0.22-0.51-0.29
			c0.06-0.15,0.12-0.31,0.18-0.46c0.98,0.33,1.96,0.67,2.93,1.02c0.02,0.05,0.05,0.1,0.07,0.15c-0.79,1.86-1.57,3.72-2.36,5.58
			c-0.07,0.16-0.09,0.31-0.06,0.45c0.03,0.14,0.1,0.26,0.23,0.38c0.1,0.09,0.19,0.17,0.29,0.24c0.1,0.07,0.21,0.14,0.34,0.21
			C118.35,23.12,118.29,23.27,118.22,23.42z M121.32,13.39c-0.11,0.26-0.31,0.45-0.61,0.56c-0.29,0.11-0.59,0.1-0.9-0.03
			c-0.28-0.12-0.49-0.31-0.62-0.59c-0.13-0.27-0.15-0.53-0.05-0.77c0.1-0.26,0.3-0.44,0.59-0.54c0.29-0.1,0.58-0.1,0.87,0.02
			c0.32,0.13,0.55,0.33,0.68,0.6C121.41,12.9,121.42,13.15,121.32,13.39z"/>
		<path d="M123.41,26c-1.1-0.53-1.81-1.25-2.14-2.18c-0.33-0.93-0.26-1.95,0.23-3.05c0.21-0.48,0.5-0.88,0.86-1.22
			c0.36-0.34,0.78-0.6,1.27-0.78c0.47-0.18,0.99-0.26,1.56-0.23c0.57,0.03,1.15,0.18,1.71,0.45c0.78,0.38,1.34,0.85,1.67,1.4
			c0.33,0.56,0.36,1.1,0.09,1.64c-0.11,0.22-0.28,0.39-0.49,0.5c-0.21,0.11-0.46,0.09-0.75-0.05c-0.31-0.15-0.52-0.34-0.63-0.56
			c-0.1-0.22-0.12-0.41-0.04-0.58c0.1-0.2,0.23-0.39,0.4-0.58c0.17-0.18,0.28-0.32,0.34-0.41c-0.03-0.19-0.13-0.35-0.29-0.49
			c-0.17-0.14-0.36-0.26-0.58-0.37c-0.26-0.12-0.53-0.19-0.8-0.21c-0.28-0.02-0.59,0.05-0.92,0.19c-0.3,0.13-0.61,0.37-0.91,0.7
			c-0.3,0.33-0.58,0.76-0.83,1.3c-0.39,0.85-0.49,1.64-0.32,2.37c0.18,0.74,0.61,1.27,1.3,1.6c0.5,0.24,0.97,0.34,1.41,0.29
			c0.44-0.05,0.91-0.21,1.42-0.48c0.12,0.18,0.23,0.35,0.35,0.53c-0.61,0.36-1.27,0.55-1.97,0.58C124.64,26.41,124,26.29,123.41,26z
			"/>
	</g>
</g>
<g class="st0">
	<g class="st1">
		<path d="M20.73,25.53c-1.08,0.5-2.07,0.59-3,0.25c-0.93-0.33-1.67-1.03-2.22-2.09c-0.24-0.46-0.37-0.94-0.41-1.44
			c-0.03-0.49,0.03-0.99,0.2-1.48c0.16-0.48,0.43-0.93,0.82-1.36c0.39-0.43,0.87-0.78,1.45-1.04c0.79-0.36,1.52-0.49,2.15-0.39
			c0.64,0.1,1.07,0.44,1.31,0.99c0.1,0.23,0.12,0.46,0.07,0.7c-0.05,0.23-0.23,0.41-0.52,0.54c-0.32,0.14-0.59,0.18-0.83,0.12
			c-0.24-0.06-0.39-0.17-0.47-0.34c-0.09-0.21-0.15-0.43-0.19-0.68c-0.03-0.25-0.06-0.42-0.1-0.53c-0.16-0.1-0.35-0.13-0.56-0.09
			c-0.21,0.04-0.43,0.11-0.66,0.21c-0.26,0.12-0.49,0.28-0.68,0.48c-0.19,0.2-0.34,0.48-0.44,0.84c-0.09,0.32-0.1,0.7-0.04,1.15
			c0.06,0.44,0.23,0.93,0.49,1.46c0.41,0.84,0.96,1.42,1.63,1.75c0.68,0.33,1.35,0.34,2.03,0.03c0.5-0.22,0.86-0.52,1.1-0.88
			c0.24-0.36,0.42-0.83,0.52-1.39c0.21,0.03,0.42,0.05,0.62,0.08c-0.12,0.69-0.38,1.31-0.8,1.87
			C21.81,24.85,21.31,25.26,20.73,25.53z"/>
		<path d="M33.14,20.5c-0.22,0.16-0.42,0.29-0.59,0.4c-0.17,0.11-0.38,0.2-0.61,0.27c-0.41,0.13-0.76,0.15-1.06,0.05
			c-0.3-0.09-0.54-0.3-0.72-0.61c-0.02,0.01-0.03,0.01-0.05,0.02c-0.23,0.46-0.51,0.84-0.83,1.16c-0.33,0.32-0.76,0.57-1.31,0.77
			c-0.58,0.21-1.11,0.23-1.6,0.05c-0.49-0.18-0.84-0.52-1.04-1.04c-0.1-0.27-0.15-0.52-0.15-0.77c0-0.24,0.06-0.48,0.16-0.72
			c0.08-0.19,0.21-0.38,0.39-0.58c0.18-0.19,0.35-0.36,0.52-0.5c0.21-0.17,0.65-0.5,1.32-0.98c0.67-0.48,1.13-0.82,1.35-1.03
			c-0.08-0.24-0.16-0.47-0.23-0.71c-0.02-0.06-0.08-0.18-0.16-0.34c-0.09-0.17-0.21-0.31-0.36-0.43c-0.17-0.14-0.38-0.24-0.63-0.3
			c-0.25-0.06-0.56-0.03-0.94,0.1c-0.26,0.09-0.48,0.21-0.68,0.36c-0.19,0.15-0.32,0.29-0.38,0.4c0.03,0.09,0.11,0.22,0.23,0.39
			c0.12,0.17,0.21,0.33,0.26,0.48c0.06,0.17,0.03,0.35-0.1,0.55c-0.12,0.2-0.34,0.36-0.64,0.47c-0.27,0.1-0.51,0.1-0.7-0.02
			c-0.19-0.12-0.33-0.28-0.41-0.49c-0.08-0.22-0.07-0.46,0.03-0.72c0.1-0.27,0.27-0.53,0.51-0.79c0.2-0.22,0.47-0.45,0.79-0.67
			c0.33-0.22,0.66-0.39,1.01-0.51c0.47-0.17,0.9-0.28,1.27-0.34c0.37-0.06,0.73-0.05,1.08,0.04c0.35,0.08,0.64,0.26,0.88,0.51
			c0.24,0.26,0.44,0.63,0.59,1.1c0.21,0.69,0.4,1.29,0.55,1.83c0.15,0.53,0.32,1.12,0.52,1.74c0.06,0.19,0.14,0.32,0.25,0.41
			c0.11,0.09,0.25,0.15,0.42,0.18c0.09,0.02,0.23,0,0.4-0.04c0.17-0.05,0.35-0.1,0.53-0.15C33.05,20.19,33.09,20.34,33.14,20.5z
			 M29.13,17.59c-0.43,0.27-0.79,0.53-1.1,0.76c-0.31,0.23-0.58,0.49-0.81,0.77c-0.21,0.26-0.35,0.53-0.43,0.8
			c-0.08,0.28-0.06,0.56,0.06,0.87c0.14,0.39,0.37,0.64,0.66,0.74c0.3,0.1,0.62,0.09,0.97-0.04c0.37-0.13,0.67-0.33,0.9-0.59
			c0.23-0.26,0.4-0.54,0.53-0.83C29.65,19.25,29.39,18.42,29.13,17.59z"/>
		<path d="M39.33,8.02c0.05,0.22,0.01,0.42-0.1,0.6c-0.11,0.18-0.31,0.3-0.6,0.36c-0.18,0.04-0.35,0.04-0.5,0.01
			c-0.15-0.03-0.3-0.09-0.44-0.17c-0.14-0.08-0.28-0.18-0.41-0.29c-0.13-0.11-0.24-0.2-0.33-0.27c-0.4,0.11-0.65,0.41-0.76,0.9
			c-0.11,0.49-0.05,1.22,0.18,2.19c0.06,0.25,0.12,0.49,0.18,0.74c0.73-0.17,1.46-0.34,2.2-0.5c0.05,0.24,0.1,0.47,0.15,0.71
			c-0.73,0.16-1.46,0.32-2.18,0.5c0.41,1.73,0.83,3.46,1.24,5.18c0.04,0.17,0.11,0.3,0.21,0.39c0.1,0.09,0.23,0.14,0.4,0.16
			c0.14,0.01,0.32,0.01,0.54-0.01c0.22-0.02,0.41-0.04,0.57-0.07c0.04,0.16,0.07,0.32,0.11,0.49c-1.39,0.31-2.78,0.65-4.16,1.02
			c-0.04-0.16-0.09-0.32-0.13-0.48c0.12-0.04,0.24-0.09,0.37-0.13c0.13-0.04,0.24-0.09,0.33-0.15c0.14-0.08,0.23-0.19,0.27-0.32
			c0.04-0.13,0.04-0.28,0-0.45c-0.45-1.75-0.89-3.49-1.34-5.24c-0.56,0.14-1.11,0.29-1.66,0.44c-0.06-0.23-0.13-0.46-0.19-0.7
			c0.56-0.15,1.12-0.3,1.67-0.44c-0.04-0.15-0.08-0.31-0.12-0.46c-0.28-1.09-0.17-2.06,0.36-2.91c0.52-0.85,1.32-1.4,2.37-1.63
			c0.53-0.12,0.96-0.11,1.26,0C39.1,7.59,39.28,7.77,39.33,8.02z"/>
		<path d="M49.47,15.53c-0.28,0.63-0.68,1.15-1.2,1.57c-0.52,0.42-1.14,0.68-1.87,0.79c-0.64,0.1-1.22,0.08-1.74-0.05
			c-0.52-0.13-0.97-0.34-1.35-0.64c-0.38-0.3-0.69-0.67-0.94-1.11c-0.25-0.44-0.42-0.93-0.52-1.46c-0.09-0.47-0.09-0.95-0.01-1.44
			c0.09-0.49,0.27-0.95,0.54-1.37c0.26-0.41,0.62-0.76,1.08-1.06c0.45-0.3,0.99-0.49,1.6-0.59c0.63-0.09,1.18-0.09,1.66,0.02
			c0.47,0.11,0.87,0.3,1.18,0.55c0.3,0.25,0.54,0.55,0.71,0.92c0.17,0.36,0.28,0.77,0.34,1.21c0.02,0.16,0.04,0.33,0.06,0.49
			c-1.84,0.21-3.68,0.48-5.52,0.79c0.08,0.48,0.21,0.91,0.38,1.28c0.17,0.37,0.39,0.69,0.66,0.95c0.26,0.25,0.58,0.43,0.95,0.55
			c0.37,0.11,0.79,0.13,1.26,0.07c0.48-0.07,0.89-0.23,1.21-0.48c0.33-0.25,0.62-0.67,0.89-1.25
			C49.06,15.36,49.26,15.45,49.47,15.53z M47.27,12.95c-0.04-0.28-0.1-0.57-0.2-0.88c-0.1-0.31-0.22-0.56-0.37-0.76
			c-0.16-0.21-0.37-0.37-0.62-0.48c-0.25-0.11-0.56-0.14-0.93-0.09c-0.61,0.09-1.08,0.39-1.41,0.89c-0.33,0.5-0.44,1.14-0.34,1.91
			C44.68,13.32,45.97,13.12,47.27,12.95z"/>
		<path d="M69.85,10.89c-0.34-0.01-0.69,0.02-1.05,0.08c-0.35,0.06-0.63,0.19-0.83,0.37c-0.13,0.11-0.27,0.28-0.41,0.51
			c-0.14,0.23-0.31,0.49-0.5,0.8c-0.19,0.31-0.39,0.61-0.58,0.91c-0.19,0.3-0.44,0.6-0.73,0.89c0.21,0.25,0.47,0.53,0.77,0.83
			c0.3,0.3,0.56,0.53,0.78,0.67c0.21,0.13,0.51,0.25,0.91,0.37c0.39,0.11,0.72,0.19,0.98,0.22c-0.02,0.18-0.03,0.35-0.05,0.53
			c-1.12-0.1-2.24-0.19-3.36-0.25c-0.38-0.45-0.77-0.9-1.16-1.34c-0.19,0.17-0.41,0.35-0.65,0.53c-0.24,0.18-0.49,0.34-0.75,0.47
			c-0.29,0.14-0.58,0.25-0.86,0.33c-0.29,0.08-0.62,0.12-1.01,0.11c-0.4,0-0.8-0.06-1.2-0.17c-0.4-0.11-0.76-0.28-1.09-0.51
			c-0.32-0.23-0.58-0.52-0.79-0.88c-0.21-0.36-0.32-0.79-0.33-1.29c-0.01-0.62,0.15-1.19,0.52-1.7c0.36-0.51,1.06-1.06,2.09-1.62
			c-0.47-0.54-0.84-1-1.11-1.39C59.17,9,59.03,8.56,59.02,8.07c0-0.35,0.07-0.66,0.24-0.96c0.16-0.29,0.39-0.54,0.7-0.76
			c0.28-0.2,0.62-0.35,1.02-0.46c0.4-0.11,0.81-0.16,1.22-0.15c0.49,0.01,0.91,0.08,1.28,0.22c0.36,0.14,0.66,0.32,0.88,0.53
			c0.2,0.2,0.36,0.43,0.46,0.68c0.1,0.26,0.14,0.51,0.13,0.76c-0.03,0.6-0.27,1.11-0.72,1.53c-0.45,0.42-1.06,0.79-1.83,1.12
			c0.53,0.65,1.04,1.25,1.54,1.79c0.49,0.54,0.96,1.08,1.4,1.61c0.4-0.52,0.72-1,0.96-1.47c0.24-0.46,0.37-0.87,0.39-1.23
			c0.01-0.16-0.12-0.3-0.38-0.4c-0.26-0.11-0.63-0.22-1.1-0.33c0.01-0.18,0.02-0.36,0.03-0.53c1.56,0.08,3.12,0.19,4.68,0.34
			C69.88,10.54,69.86,10.71,69.85,10.89z M64.19,15.04c-0.49-0.61-1.06-1.28-1.7-2c-0.64-0.72-1.17-1.32-1.57-1.81
			c-0.47,0.28-0.8,0.61-0.99,0.99c-0.19,0.38-0.28,0.81-0.28,1.3c0,0.68,0.23,1.25,0.65,1.7c0.43,0.45,1,0.68,1.71,0.69
			c0.4,0.01,0.8-0.06,1.19-0.21C63.6,15.54,63.93,15.33,64.19,15.04z M63.78,8.05c0.02-0.51-0.1-0.91-0.37-1.19
			c-0.26-0.28-0.64-0.43-1.14-0.44c-0.28-0.01-0.52,0.04-0.71,0.13c-0.19,0.09-0.35,0.21-0.48,0.36c-0.12,0.14-0.21,0.29-0.26,0.45
			c-0.05,0.16-0.08,0.3-0.08,0.43c0,0.35,0.1,0.7,0.31,1.05c0.21,0.36,0.53,0.79,0.97,1.3c0.6-0.28,1.04-0.58,1.32-0.91
			C63.62,8.89,63.76,8.5,63.78,8.05z"/>
		<path d="M86.19,16.42c-0.29,1.08-0.92,1.87-1.86,2.41c-0.94,0.54-1.89,0.69-2.88,0.47c-0.43-0.1-0.84-0.26-1.24-0.47
			c-0.39-0.21-0.76-0.46-1.09-0.74c-0.26,0.24-0.51,0.49-0.76,0.73c-0.16-0.07-0.32-0.13-0.48-0.2c0.1-0.36,0.2-0.8,0.31-1.31
			c0.11-0.51,0.21-1.01,0.3-1.48c0.46-2.41,0.92-4.82,1.37-7.22c0.03-0.17,0.02-0.34-0.04-0.53c-0.06-0.19-0.16-0.33-0.29-0.43
			c-0.1-0.09-0.28-0.17-0.55-0.25c-0.26-0.08-0.47-0.14-0.63-0.18c0.03-0.16,0.05-0.32,0.08-0.47c1.1,0.13,2.21,0.29,3.31,0.46
			c0.03,0.05,0.07,0.09,0.1,0.14c-0.33,1.6-0.66,3.2-0.99,4.79c0.02,0.01,0.04,0.02,0.06,0.03c0.42-0.25,0.87-0.41,1.33-0.48
			c0.46-0.07,0.9-0.05,1.31,0.04c1.05,0.24,1.84,0.82,2.35,1.7C86.4,14.3,86.49,15.3,86.19,16.42z M84.45,16.01
			c0.09-0.36,0.14-0.74,0.14-1.14c0-0.4-0.05-0.76-0.18-1.08c-0.12-0.33-0.32-0.62-0.59-0.87c-0.27-0.25-0.63-0.43-1.07-0.53
			c-0.4-0.09-0.77-0.1-1.1-0.03c-0.33,0.07-0.64,0.2-0.93,0.38c-0.29,1.41-0.58,2.82-0.88,4.23c0.01,0.12,0.04,0.28,0.11,0.45
			c0.06,0.18,0.16,0.35,0.29,0.53c0.13,0.17,0.29,0.32,0.48,0.45c0.19,0.13,0.43,0.23,0.72,0.3c0.65,0.15,1.25-0.01,1.8-0.49
			C83.79,17.75,84.19,17.01,84.45,16.01z"/>
		<path d="M95.35,23.25c-0.27-0.02-0.51-0.04-0.71-0.06c-0.2-0.02-0.42-0.08-0.65-0.17c-0.4-0.15-0.69-0.36-0.87-0.62
			c-0.18-0.26-0.24-0.57-0.19-0.92c-0.02-0.01-0.03-0.01-0.05-0.02c-0.46,0.22-0.92,0.35-1.37,0.39c-0.45,0.05-0.95-0.03-1.5-0.21
			c-0.58-0.19-1.01-0.51-1.28-0.95c-0.28-0.44-0.34-0.93-0.17-1.46c0.08-0.27,0.2-0.51,0.35-0.69c0.15-0.19,0.34-0.34,0.57-0.46
			c0.18-0.1,0.4-0.17,0.66-0.21c0.26-0.04,0.5-0.06,0.72-0.07c0.27,0,0.82,0.01,1.64,0.05c0.82,0.04,1.39,0.05,1.7,0.02
			c0.08-0.23,0.17-0.47,0.25-0.7c0.02-0.06,0.05-0.18,0.08-0.37c0.03-0.19,0.03-0.37-0.02-0.57c-0.05-0.21-0.15-0.42-0.31-0.63
			c-0.16-0.2-0.43-0.37-0.8-0.5c-0.26-0.09-0.51-0.13-0.76-0.13c-0.25,0-0.43,0.03-0.54,0.08c-0.03,0.1-0.05,0.24-0.06,0.45
			c-0.01,0.2-0.04,0.38-0.09,0.54c-0.06,0.17-0.19,0.29-0.41,0.37c-0.22,0.08-0.48,0.07-0.79-0.03c-0.28-0.09-0.45-0.24-0.53-0.45
			c-0.08-0.21-0.08-0.42-0.02-0.63c0.07-0.22,0.23-0.4,0.47-0.55c0.25-0.14,0.54-0.25,0.89-0.31c0.3-0.05,0.64-0.06,1.03-0.04
			c0.39,0.03,0.76,0.1,1.11,0.22c0.47,0.16,0.88,0.34,1.21,0.52c0.33,0.18,0.61,0.41,0.83,0.7c0.22,0.28,0.35,0.6,0.38,0.95
			c0.03,0.35-0.04,0.77-0.22,1.23c-0.26,0.67-0.49,1.26-0.7,1.77c-0.21,0.51-0.44,1.08-0.67,1.69c-0.07,0.18-0.09,0.34-0.06,0.48
			c0.03,0.14,0.1,0.27,0.22,0.4c0.06,0.07,0.18,0.14,0.34,0.21c0.17,0.07,0.34,0.14,0.52,0.21C95.47,22.95,95.41,23.1,95.35,23.25z
			 M93.99,18.48c-0.5-0.05-0.95-0.08-1.34-0.08c-0.39-0.01-0.76,0.03-1.11,0.1c-0.33,0.07-0.6,0.19-0.83,0.36
			c-0.23,0.17-0.39,0.41-0.49,0.72c-0.13,0.4-0.11,0.73,0.06,0.99c0.17,0.26,0.43,0.45,0.78,0.57c0.37,0.13,0.73,0.16,1.07,0.1
			c0.34-0.06,0.65-0.17,0.93-0.32C93.36,20.1,93.68,19.29,93.99,18.48z"/>
		<path d="M106.29,21.25c-0.12,0.23-0.29,0.4-0.51,0.51c-0.22,0.11-0.47,0.1-0.75-0.04c-0.3-0.15-0.49-0.32-0.58-0.53
			c-0.09-0.21-0.1-0.39-0.03-0.55c0.05-0.1,0.1-0.19,0.16-0.26c0.06-0.07,0.12-0.14,0.17-0.22c-0.25-0.12-0.59-0.18-1.01-0.17
			c-0.42,0.01-0.82,0.12-1.21,0.33c-0.61,1.31-1.21,2.61-1.82,3.92c-0.07,0.16-0.1,0.31-0.08,0.44c0.02,0.13,0.1,0.26,0.22,0.38
			c0.11,0.11,0.25,0.22,0.44,0.33c0.19,0.12,0.36,0.22,0.5,0.3c-0.07,0.15-0.14,0.3-0.22,0.45c-1.31-0.63-2.63-1.23-3.96-1.8
			c0.07-0.15,0.13-0.3,0.2-0.46c0.12,0.04,0.25,0.08,0.38,0.13c0.13,0.05,0.25,0.07,0.35,0.09c0.16,0.02,0.3,0,0.41-0.08
			c0.12-0.07,0.21-0.19,0.28-0.36c0.62-1.4,1.24-2.79,1.86-4.19c0.06-0.14,0.09-0.3,0.07-0.47c-0.02-0.17-0.08-0.33-0.19-0.48
			c-0.08-0.1-0.18-0.19-0.32-0.28c-0.13-0.09-0.28-0.17-0.44-0.25c0.07-0.15,0.13-0.3,0.2-0.46c0.93,0.34,1.85,0.68,2.77,1.05
			c0.02,0.05,0.05,0.1,0.07,0.15c-0.15,0.32-0.29,0.63-0.44,0.95c0.01,0.01,0.03,0.01,0.04,0.02c0.51-0.21,1.01-0.32,1.52-0.31
			c0.5,0.01,0.93,0.1,1.27,0.27c0.34,0.17,0.57,0.4,0.69,0.69C106.47,20.64,106.45,20.94,106.29,21.25z"/>
	</g>
</g>
<g class="st0">
	<g class="st1">
		<path d="M30.08,25.54c-1.09,0.49-2.08,0.57-3.01,0.23c-0.93-0.34-1.68-1.03-2.22-2.09c-0.24-0.46-0.37-0.94-0.4-1.44
			c-0.03-0.49,0.04-0.99,0.21-1.49c0.16-0.48,0.45-0.93,0.85-1.37c0.4-0.43,0.9-0.78,1.49-1.04c0.81-0.36,1.55-0.48,2.2-0.37
			c0.65,0.11,1.08,0.45,1.3,1.01c0.09,0.23,0.11,0.47,0.05,0.7c-0.06,0.23-0.24,0.41-0.54,0.53c-0.32,0.13-0.6,0.17-0.84,0.11
			c-0.24-0.06-0.39-0.18-0.47-0.35c-0.09-0.21-0.15-0.43-0.18-0.68c-0.03-0.25-0.06-0.42-0.09-0.53c-0.16-0.1-0.35-0.13-0.57-0.09
			c-0.22,0.04-0.44,0.11-0.67,0.21c-0.27,0.12-0.5,0.28-0.7,0.48c-0.2,0.2-0.35,0.48-0.46,0.84c-0.1,0.32-0.11,0.71-0.05,1.15
			c0.06,0.44,0.22,0.93,0.48,1.47c0.4,0.84,0.95,1.42,1.63,1.76c0.68,0.33,1.35,0.35,2.04,0.05c0.5-0.22,0.87-0.51,1.12-0.87
			c0.25-0.36,0.43-0.82,0.55-1.38c0.21,0.03,0.42,0.06,0.62,0.09c-0.13,0.69-0.41,1.31-0.83,1.86
			C31.16,24.88,30.66,25.28,30.08,25.54z"/>
		<path d="M42.61,20.91c-0.23,0.14-0.43,0.27-0.61,0.37c-0.18,0.1-0.38,0.18-0.62,0.24c-0.41,0.11-0.77,0.11-1.06,0
			c-0.3-0.11-0.53-0.32-0.69-0.64c-0.02,0-0.03,0.01-0.05,0.01c-0.25,0.45-0.54,0.82-0.88,1.12c-0.34,0.3-0.78,0.54-1.33,0.72
			c-0.58,0.19-1.11,0.19-1.6,0c-0.49-0.19-0.83-0.54-1.01-1.06c-0.1-0.27-0.14-0.53-0.13-0.77c0.01-0.24,0.07-0.48,0.19-0.71
			c0.09-0.19,0.22-0.38,0.41-0.57c0.19-0.19,0.37-0.35,0.54-0.48c0.22-0.16,0.67-0.48,1.37-0.94c0.7-0.46,1.17-0.78,1.4-0.98
			c-0.07-0.24-0.14-0.48-0.21-0.72c-0.02-0.06-0.07-0.18-0.15-0.35c-0.08-0.17-0.2-0.32-0.35-0.45c-0.17-0.14-0.37-0.25-0.62-0.32
			c-0.25-0.07-0.57-0.05-0.96,0.07c-0.27,0.08-0.5,0.2-0.7,0.34c-0.2,0.15-0.34,0.28-0.4,0.39c0.03,0.1,0.1,0.23,0.22,0.4
			c0.11,0.17,0.2,0.33,0.25,0.49c0.05,0.17,0.01,0.35-0.12,0.55c-0.13,0.2-0.35,0.35-0.67,0.45c-0.28,0.09-0.51,0.08-0.7-0.04
			c-0.19-0.12-0.32-0.29-0.4-0.5c-0.08-0.22-0.06-0.46,0.06-0.72c0.12-0.26,0.3-0.52,0.54-0.78c0.21-0.22,0.49-0.44,0.83-0.65
			c0.34-0.21,0.69-0.37,1.04-0.48c0.49-0.15,0.92-0.25,1.3-0.3c0.38-0.05,0.75-0.02,1.09,0.08c0.35,0.1,0.64,0.28,0.87,0.55
			c0.24,0.27,0.42,0.64,0.54,1.13c0.18,0.69,0.34,1.31,0.46,1.85c0.12,0.54,0.27,1.13,0.44,1.76c0.05,0.19,0.13,0.33,0.23,0.42
			c0.1,0.09,0.24,0.16,0.41,0.2c0.09,0.02,0.23,0.01,0.4-0.02c0.18-0.04,0.36-0.08,0.54-0.13C42.53,20.59,42.57,20.75,42.61,20.91z
			 M38.73,17.82c-0.44,0.26-0.82,0.5-1.14,0.72c-0.32,0.22-0.6,0.47-0.85,0.74c-0.22,0.25-0.38,0.51-0.46,0.79
			c-0.09,0.27-0.08,0.56,0.03,0.87c0.13,0.4,0.34,0.65,0.64,0.76c0.29,0.11,0.61,0.11,0.97,0c0.38-0.12,0.68-0.3,0.92-0.55
			c0.24-0.25,0.43-0.52,0.56-0.81C39.17,19.5,38.95,18.66,38.73,17.82z"/>
		<path d="M49.68,8.83c0.03,0.22-0.02,0.42-0.15,0.6C49.4,9.6,49.18,9.7,48.88,9.74c-0.19,0.03-0.36,0.02-0.52-0.03
			c-0.15-0.04-0.3-0.11-0.44-0.2c-0.14-0.09-0.27-0.2-0.4-0.32c-0.13-0.12-0.23-0.22-0.32-0.29c-0.41,0.08-0.7,0.36-0.85,0.85
			c-0.15,0.48-0.14,1.22,0.03,2.19c0.04,0.25,0.09,0.5,0.13,0.75c0.75-0.13,1.51-0.25,2.27-0.35c0.03,0.24,0.07,0.48,0.1,0.72
			c-0.75,0.11-1.5,0.22-2.25,0.35c0.3,1.75,0.6,3.5,0.9,5.25c0.03,0.17,0.09,0.31,0.18,0.4c0.09,0.1,0.22,0.16,0.39,0.19
			c0.14,0.02,0.32,0.03,0.54,0.02c0.22-0.01,0.41-0.02,0.57-0.03c0.02,0.16,0.05,0.33,0.07,0.49c-1.41,0.21-2.81,0.46-4.21,0.75
			c-0.03-0.16-0.07-0.32-0.1-0.49c0.12-0.04,0.25-0.07,0.38-0.11c0.13-0.04,0.24-0.08,0.33-0.13c0.14-0.07,0.24-0.17,0.29-0.3
			c0.05-0.13,0.06-0.28,0.03-0.45c-0.34-1.77-0.68-3.54-1.02-5.31c-0.57,0.11-1.14,0.23-1.71,0.35c-0.05-0.24-0.1-0.47-0.15-0.71
			c0.58-0.12,1.15-0.24,1.73-0.35c-0.03-0.15-0.06-0.31-0.09-0.46c-0.21-1.11-0.04-2.07,0.56-2.89c0.59-0.82,1.45-1.32,2.55-1.48
			c0.56-0.08,0.99-0.05,1.29,0.09C49.48,8.38,49.64,8.58,49.68,8.83z"/>
		<path d="M59.27,17.17c-0.34,0.6-0.79,1.08-1.35,1.45c-0.56,0.37-1.2,0.57-1.93,0.61c-0.65,0.04-1.22-0.03-1.72-0.2
			c-0.51-0.17-0.93-0.42-1.29-0.75c-0.35-0.33-0.64-0.72-0.85-1.18c-0.21-0.46-0.35-0.96-0.41-1.49c-0.05-0.48-0.02-0.96,0.11-1.44
			c0.13-0.48,0.35-0.92,0.66-1.33c0.3-0.39,0.7-0.71,1.19-0.97c0.49-0.26,1.05-0.41,1.68-0.45c0.65-0.04,1.21,0.02,1.68,0.17
			c0.47,0.15,0.85,0.37,1.14,0.66c0.28,0.27,0.49,0.6,0.63,0.98c0.14,0.38,0.21,0.79,0.22,1.24c0,0.17,0.01,0.33,0.01,0.5
			c-1.88,0.03-3.75,0.13-5.62,0.29c0.04,0.49,0.13,0.92,0.27,1.31c0.14,0.39,0.33,0.72,0.58,1.01c0.24,0.27,0.54,0.48,0.9,0.63
			c0.36,0.14,0.78,0.2,1.25,0.18c0.49-0.03,0.91-0.15,1.26-0.37c0.35-0.22,0.68-0.61,1.01-1.16C58.87,16.96,59.07,17.07,59.27,17.17
			z M57.31,14.39c-0.01-0.28-0.05-0.58-0.12-0.9c-0.07-0.32-0.17-0.58-0.3-0.79c-0.15-0.22-0.34-0.4-0.59-0.54
			c-0.25-0.13-0.56-0.19-0.93-0.17c-0.63,0.04-1.13,0.29-1.51,0.76c-0.38,0.47-0.54,1.1-0.51,1.88
			C54.67,14.53,55.99,14.44,57.31,14.39z"/>
		<path d="M76.5,16.9c-0.23,1.09-0.82,1.92-1.73,2.51c-0.91,0.59-1.84,0.81-2.84,0.65c-0.44-0.07-0.86-0.2-1.26-0.38
			c-0.41-0.18-0.79-0.4-1.14-0.66c-0.24,0.26-0.47,0.52-0.71,0.79c-0.16-0.05-0.33-0.11-0.49-0.16c0.07-0.37,0.14-0.81,0.2-1.33
			c0.07-0.52,0.13-1.02,0.18-1.5c0.27-2.44,0.54-4.87,0.81-7.31c0.02-0.17-0.01-0.34-0.09-0.53c-0.08-0.18-0.19-0.32-0.33-0.41
			C69,8.5,68.81,8.43,68.54,8.37c-0.27-0.06-0.5-0.1-0.66-0.13c0.01-0.16,0.03-0.32,0.04-0.48c1.14,0.05,2.28,0.12,3.43,0.21
			c0.04,0.04,0.08,0.09,0.12,0.13c-0.21,1.62-0.42,3.24-0.64,4.85c0.02,0.01,0.04,0.02,0.06,0.02c0.41-0.28,0.85-0.47,1.31-0.57
			c0.46-0.1,0.91-0.11,1.33-0.05c1.09,0.18,1.93,0.7,2.5,1.55C76.59,14.77,76.74,15.76,76.5,16.9z M74.72,16.6
			c0.07-0.36,0.09-0.75,0.07-1.14c-0.02-0.4-0.1-0.75-0.25-1.07c-0.15-0.32-0.37-0.6-0.66-0.83c-0.29-0.23-0.67-0.39-1.12-0.46
			c-0.41-0.06-0.79-0.05-1.11,0.04c-0.33,0.09-0.63,0.24-0.91,0.44c-0.19,1.43-0.38,2.86-0.56,4.28c0.02,0.12,0.06,0.27,0.14,0.44
			c0.08,0.17,0.18,0.34,0.33,0.51c0.14,0.16,0.31,0.3,0.51,0.42c0.19,0.12,0.44,0.2,0.74,0.25c0.66,0.1,1.24-0.09,1.76-0.6
			C74.17,18.36,74.53,17.61,74.72,16.6z"/>
		<path d="M85.97,23.35c-0.27-0.01-0.51-0.02-0.72-0.04c-0.2-0.02-0.42-0.07-0.66-0.15c-0.41-0.14-0.7-0.34-0.89-0.59
			c-0.19-0.25-0.26-0.56-0.22-0.92c-0.02-0.01-0.03-0.01-0.05-0.02c-0.46,0.23-0.91,0.38-1.36,0.44c-0.45,0.06-0.95,0.01-1.5-0.15
			c-0.59-0.17-1.02-0.46-1.32-0.89c-0.29-0.43-0.38-0.91-0.24-1.45c0.07-0.28,0.18-0.51,0.32-0.71c0.14-0.2,0.33-0.36,0.55-0.49
			c0.18-0.11,0.39-0.19,0.65-0.24c0.26-0.05,0.5-0.08,0.72-0.1c0.27-0.01,0.82-0.02,1.66-0.01c0.83,0.01,1.41,0.01,1.72-0.03
			c0.08-0.24,0.15-0.47,0.23-0.71c0.02-0.06,0.04-0.19,0.07-0.37c0.03-0.19,0.01-0.38-0.04-0.57c-0.06-0.21-0.17-0.42-0.34-0.62
			c-0.17-0.2-0.45-0.36-0.83-0.47c-0.27-0.08-0.52-0.12-0.77-0.11c-0.25,0.01-0.43,0.04-0.55,0.1c-0.03,0.1-0.04,0.25-0.04,0.45
			c0,0.2-0.02,0.39-0.07,0.54c-0.05,0.17-0.18,0.3-0.4,0.39c-0.22,0.09-0.49,0.09-0.8,0c-0.28-0.08-0.47-0.22-0.56-0.43
			c-0.09-0.21-0.11-0.42-0.05-0.63c0.06-0.22,0.21-0.41,0.45-0.57c0.24-0.15,0.54-0.27,0.88-0.35c0.3-0.06,0.65-0.09,1.05-0.08
			c0.4,0.01,0.78,0.07,1.13,0.18c0.49,0.15,0.91,0.31,1.25,0.48c0.34,0.17,0.63,0.4,0.87,0.68c0.23,0.27,0.38,0.59,0.42,0.94
			c0.05,0.35-0.01,0.77-0.18,1.24c-0.24,0.68-0.45,1.28-0.65,1.79c-0.2,0.52-0.4,1.09-0.62,1.71c-0.06,0.18-0.08,0.35-0.05,0.48
			c0.03,0.13,0.11,0.26,0.23,0.39c0.06,0.07,0.18,0.14,0.35,0.2c0.17,0.07,0.34,0.13,0.52,0.2C86.08,23.05,86.03,23.2,85.97,23.35z
			 M84.45,18.62c-0.51-0.03-0.96-0.04-1.35-0.04c-0.39,0.01-0.76,0.05-1.12,0.14c-0.32,0.08-0.6,0.22-0.82,0.4
			c-0.22,0.18-0.38,0.43-0.46,0.74c-0.11,0.4-0.08,0.73,0.1,0.99c0.18,0.25,0.45,0.43,0.8,0.54c0.38,0.11,0.74,0.13,1.07,0.06
			c0.34-0.08,0.65-0.19,0.92-0.35C83.89,20.26,84.17,19.44,84.45,18.62z"/>
		<path d="M96.96,21.25c-0.12,0.23-0.29,0.4-0.51,0.5c-0.22,0.11-0.48,0.09-0.76-0.05c-0.3-0.15-0.5-0.33-0.6-0.54
			c-0.1-0.21-0.11-0.39-0.03-0.55c0.05-0.1,0.1-0.19,0.16-0.26c0.06-0.07,0.12-0.15,0.17-0.22c-0.26-0.12-0.6-0.18-1.03-0.17
			c-0.43,0.01-0.83,0.12-1.22,0.34c-0.59,1.31-1.18,2.63-1.78,3.94c-0.07,0.16-0.1,0.31-0.07,0.44c0.02,0.13,0.1,0.26,0.22,0.38
			c0.11,0.1,0.26,0.21,0.45,0.33c0.19,0.12,0.36,0.22,0.5,0.29c-0.07,0.15-0.14,0.3-0.21,0.45c-1.31-0.63-2.64-1.21-3.98-1.75
			c0.06-0.15,0.12-0.31,0.19-0.46c0.12,0.04,0.25,0.08,0.38,0.12c0.13,0.04,0.25,0.07,0.35,0.08c0.16,0.02,0.3-0.01,0.41-0.08
			c0.11-0.07,0.21-0.19,0.28-0.36c0.6-1.4,1.2-2.81,1.79-4.21c0.06-0.14,0.08-0.3,0.06-0.47c-0.02-0.17-0.09-0.33-0.2-0.48
			c-0.08-0.1-0.19-0.19-0.33-0.28c-0.14-0.09-0.29-0.17-0.45-0.25c0.06-0.15,0.12-0.31,0.19-0.46c0.95,0.32,1.89,0.67,2.84,1.03
			c0.02,0.05,0.05,0.1,0.07,0.15c-0.14,0.32-0.29,0.64-0.43,0.95c0.01,0.01,0.03,0.01,0.04,0.02c0.51-0.22,1.02-0.32,1.53-0.31
			c0.51,0.01,0.94,0.1,1.29,0.27c0.35,0.17,0.59,0.41,0.71,0.7C97.13,20.64,97.12,20.94,96.96,21.25z"/>
	</g>
</g>
<g>
	<g>
		<path d="M20.46,24.92c-0.64,0.29-1.31,0.45-2,0.5c-0.69,0.05-1.37-0.03-2.04-0.23c-0.66-0.2-1.28-0.54-1.86-1.01
			c-0.58-0.47-1.07-1.08-1.45-1.84c-0.39-0.76-0.6-1.52-0.64-2.28c-0.03-0.76,0.09-1.49,0.37-2.19c0.28-0.69,0.71-1.32,1.29-1.89
			c0.58-0.57,1.27-1.03,2.06-1.38c0.59-0.26,1.16-0.43,1.69-0.51c0.53-0.08,1.06-0.1,1.59-0.06c0.05-0.21,0.1-0.41,0.16-0.62
			c0.23-0.09,0.46-0.18,0.68-0.27c0.49,1.17,0.98,2.34,1.47,3.52c-0.23,0.09-0.45,0.18-0.68,0.27c-0.23-0.31-0.51-0.63-0.85-0.96
			c-0.34-0.33-0.69-0.59-1.04-0.77c-0.4-0.2-0.82-0.32-1.27-0.34c-0.45-0.02-0.91,0.07-1.39,0.28c-0.54,0.24-1.01,0.56-1.38,0.97
			c-0.38,0.41-0.64,0.89-0.8,1.42c-0.15,0.52-0.17,1.1-0.08,1.76c0.09,0.65,0.31,1.32,0.65,2.02c0.3,0.62,0.66,1.14,1.09,1.56
			c0.43,0.43,0.9,0.76,1.41,0.99c0.51,0.23,1.04,0.36,1.59,0.37c0.55,0.02,1.09-0.1,1.65-0.34c0.41-0.18,0.77-0.4,1.07-0.67
			c0.3-0.27,0.54-0.55,0.72-0.85c0.18-0.31,0.31-0.64,0.41-0.98c0.1-0.34,0.15-0.69,0.15-1.05c0.23,0.01,0.46,0.01,0.7,0.02
			c-0.07,1.16-0.39,2.1-0.95,2.82C22.22,23.91,21.45,24.48,20.46,24.92z"/>
		<path d="M37.72,18.85c-1.57,0.37-3.14,0.78-4.69,1.23c-0.05-0.17-0.1-0.34-0.15-0.51c0.41-0.14,0.74-0.29,0.99-0.44
			c0.25-0.15,0.37-0.27,0.34-0.38c-0.01-0.04-0.03-0.09-0.06-0.16c-0.03-0.06-0.06-0.11-0.09-0.15c-0.52-0.68-1.06-1.36-1.6-2.04
			c-1.37,0.39-2.72,0.8-4.08,1.24c-0.04,0.38-0.07,0.72-0.08,0.99c-0.01,0.28-0.02,0.54-0.02,0.77c0,0.23,0.01,0.41,0.02,0.55
			c0.02,0.14,0.04,0.25,0.07,0.33c0.06,0.19,0.28,0.28,0.65,0.28c0.37,0,0.76-0.06,1.18-0.18c0.05,0.17,0.11,0.34,0.16,0.51
			c-1.4,0.45-2.8,0.92-4.18,1.43c-0.06-0.17-0.12-0.33-0.18-0.5c0.13-0.06,0.29-0.15,0.48-0.27c0.19-0.12,0.33-0.24,0.44-0.36
			c0.16-0.2,0.28-0.39,0.35-0.57c0.07-0.18,0.11-0.41,0.14-0.7c0.13-1.46,0.29-3.11,0.49-4.93c0.2-1.82,0.42-3.45,0.63-4.88
			c0.23-0.07,0.47-0.14,0.7-0.21c2.25,2.54,4.4,5.14,6.43,7.79c0.13,0.17,0.26,0.3,0.39,0.39c0.13,0.09,0.3,0.17,0.51,0.24
			c0.14,0.04,0.31,0.06,0.52,0.05c0.21,0,0.38-0.01,0.52-0.04C37.64,18.51,37.68,18.68,37.72,18.85z M31.97,15.84
			c-0.97-1.16-1.97-2.31-2.99-3.44c-0.2,1.51-0.38,3.01-0.53,4.51C29.63,16.53,30.8,16.18,31.97,15.84z"/>
		<path d="M47.72,8.97C47.5,9,47.28,9.02,47.06,9.05c-0.17-0.38-0.48-0.77-0.93-1.16c-0.45-0.4-0.87-0.59-1.24-0.58
			c-0.19,0.01-0.41,0.02-0.66,0.05c-0.25,0.03-0.54,0.07-0.86,0.12c-0.71,0.11-1.41,0.23-2.12,0.36c0.25,1.41,0.5,2.82,0.75,4.23
			c0.47-0.08,0.93-0.16,1.4-0.24c0.42-0.07,0.75-0.16,0.97-0.27c0.22-0.11,0.41-0.26,0.55-0.44c0.1-0.13,0.18-0.31,0.24-0.56
			c0.06-0.24,0.09-0.5,0.08-0.77c0.22-0.03,0.44-0.06,0.65-0.09c0.19,1.39,0.38,2.78,0.57,4.16c-0.21,0.03-0.42,0.06-0.63,0.09
			c-0.05-0.22-0.14-0.46-0.28-0.72c-0.14-0.26-0.27-0.45-0.41-0.56c-0.2-0.16-0.43-0.25-0.7-0.28c-0.27-0.03-0.59-0.01-0.95,0.05
			c-0.46,0.08-0.93,0.15-1.39,0.24c0.21,1.21,0.43,2.41,0.64,3.62c0.03,0.16,0.09,0.3,0.18,0.42c0.09,0.12,0.24,0.2,0.43,0.25
			c0.09,0.02,0.27,0.03,0.55,0.04c0.28,0,0.49,0,0.63-0.02c0.03,0.18,0.06,0.35,0.08,0.53c-1.66,0.27-3.31,0.58-4.95,0.93
			c-0.04-0.17-0.07-0.35-0.11-0.52c0.16-0.04,0.37-0.11,0.64-0.18c0.26-0.08,0.43-0.14,0.51-0.19c0.15-0.1,0.25-0.21,0.3-0.35
			c0.05-0.14,0.06-0.3,0.02-0.48c-0.49-2.52-0.99-5.04-1.48-7.57c-0.03-0.16-0.09-0.3-0.18-0.41c-0.09-0.11-0.25-0.19-0.47-0.23
			c-0.17-0.03-0.4-0.05-0.68-0.04c-0.28,0.01-0.5,0.02-0.66,0.05c-0.04-0.17-0.07-0.35-0.11-0.52c3.3-0.7,6.62-1.26,9.96-1.65
			C47.51,7.2,47.61,8.09,47.72,8.97z"/>
		<path d="M61.11,13.09c-0.08,1.05-0.17,2.1-0.25,3.15c-3.21-0.02-6.41,0.12-9.61,0.41c-0.02-0.18-0.03-0.35-0.05-0.53
			c0.16-0.02,0.38-0.07,0.65-0.12c0.27-0.06,0.45-0.1,0.52-0.15c0.17-0.09,0.28-0.2,0.34-0.32c0.06-0.13,0.08-0.28,0.07-0.47
			c-0.19-2.55-0.38-5.11-0.58-7.66c-0.01-0.17-0.06-0.31-0.13-0.43c-0.08-0.12-0.22-0.22-0.44-0.28c-0.17-0.05-0.39-0.09-0.66-0.12
			c-0.28-0.03-0.5-0.04-0.66-0.03c-0.02-0.18-0.03-0.35-0.05-0.53c3.3-0.3,6.61-0.46,9.92-0.46c0,0.86,0,1.72,0,2.58
			c-0.22,0-0.44,0-0.66,0c-0.12-0.38-0.38-0.78-0.78-1.21c-0.4-0.42-0.79-0.65-1.15-0.68c-0.19-0.02-0.41-0.02-0.67-0.03
			c-0.26,0-0.55,0-0.88,0.02c-0.67,0.03-1.34,0.06-2,0.1c0.08,1.41,0.16,2.83,0.24,4.24c0.46-0.03,0.92-0.05,1.38-0.07
			c0.44-0.02,0.77-0.07,0.97-0.15c0.2-0.08,0.38-0.21,0.53-0.38c0.12-0.15,0.23-0.35,0.31-0.59c0.08-0.25,0.14-0.48,0.16-0.69
			c0.22-0.01,0.44-0.01,0.66-0.01c0.03,1.4,0.05,2.79,0.08,4.19c-0.21,0-0.42,0.01-0.63,0.01c-0.03-0.24-0.1-0.49-0.2-0.76
			c-0.11-0.27-0.22-0.46-0.33-0.57c-0.18-0.19-0.39-0.31-0.62-0.36c-0.23-0.05-0.53-0.07-0.9-0.05c-0.46,0.02-0.92,0.04-1.37,0.07
			c0.06,1.07,0.12,2.13,0.18,3.2c0.02,0.32,0.06,0.57,0.12,0.75c0.06,0.18,0.16,0.32,0.31,0.41c0.15,0.09,0.35,0.14,0.59,0.15
			c0.25,0.02,0.6,0.01,1.05,0c0.18-0.01,0.42-0.02,0.71-0.02c0.3-0.01,0.54-0.02,0.75-0.05c0.21-0.02,0.42-0.07,0.64-0.12
			c0.22-0.06,0.38-0.13,0.47-0.22c0.25-0.24,0.51-0.61,0.79-1.1c0.28-0.49,0.46-0.85,0.54-1.08C60.7,13.09,60.9,13.09,61.11,13.09z"
			/>
		<path d="M78.67,12.9c0.31,0.27,0.55,0.6,0.72,0.97c0.17,0.38,0.2,0.81,0.11,1.29c-0.09,0.49-0.29,0.89-0.6,1.2
			c-0.3,0.32-0.66,0.56-1.08,0.72c-0.4,0.16-0.84,0.26-1.32,0.31c-0.48,0.04-0.95,0.03-1.44-0.05c-1.81-0.27-3.63-0.5-5.45-0.67
			c0.02-0.18,0.03-0.35,0.05-0.53c0.13,0,0.32,0,0.58-0.01c0.25-0.01,0.44-0.03,0.55-0.06c0.18-0.05,0.31-0.13,0.39-0.24
			c0.08-0.11,0.14-0.26,0.16-0.44c0.28-2.54,0.56-5.09,0.85-7.63c0.02-0.17,0-0.32-0.05-0.46c-0.05-0.14-0.18-0.26-0.37-0.36
			c-0.17-0.09-0.37-0.17-0.58-0.23c-0.22-0.06-0.4-0.1-0.55-0.13c0.02-0.18,0.03-0.35,0.05-0.53c1.97,0.19,3.93,0.43,5.89,0.72
			c0.45,0.07,0.88,0.17,1.29,0.32c0.4,0.14,0.78,0.34,1.12,0.59c0.32,0.23,0.56,0.52,0.73,0.86c0.17,0.34,0.21,0.72,0.14,1.14
			c-0.07,0.37-0.21,0.69-0.42,0.95c-0.21,0.26-0.47,0.47-0.79,0.63c-0.3,0.15-0.63,0.27-0.99,0.34c-0.36,0.08-0.75,0.12-1.15,0.14
			c0,0.02-0.01,0.04-0.01,0.07c0.34,0.09,0.72,0.23,1.13,0.42C78.02,12.4,78.37,12.63,78.67,12.9z M76.87,10.96
			c0.25-0.18,0.43-0.39,0.56-0.63c0.12-0.24,0.22-0.53,0.27-0.88c0.1-0.58-0.02-1.07-0.34-1.46c-0.32-0.39-0.9-0.65-1.72-0.77
			c-0.19-0.03-0.43-0.06-0.72-0.09c-0.29-0.03-0.53-0.06-0.73-0.08c-0.17,1.36-0.35,2.72-0.52,4.08c0.36,0.05,0.73,0.1,1.09,0.15
			c0.47,0.07,0.88,0.07,1.23,0.02C76.33,11.25,76.63,11.13,76.87,10.96z M77.49,14.52c0.11-0.62-0.04-1.18-0.45-1.66
			c-0.41-0.48-1.07-0.79-1.96-0.92c-0.36-0.05-0.67-0.09-0.92-0.12c-0.25-0.03-0.44-0.04-0.57-0.06c-0.16,1.24-0.32,2.49-0.48,3.73
			c-0.04,0.31,0.07,0.57,0.33,0.76c0.26,0.2,0.63,0.33,1.13,0.4c0.81,0.12,1.46,0,1.96-0.36C77.02,15.95,77.35,15.36,77.49,14.52z"
			/>
		<path d="M92.59,21.66c-1.54-0.53-3.08-1.02-4.64-1.48c0.05-0.17,0.1-0.34,0.15-0.51c0.42,0.1,0.78,0.15,1.07,0.16
			c0.3,0.01,0.46-0.04,0.49-0.14c0.01-0.04,0.02-0.1,0.03-0.16c0.01-0.07,0.01-0.12,0-0.18c-0.08-0.86-0.16-1.72-0.26-2.58
			c-1.36-0.4-2.73-0.78-4.1-1.12c-0.24,0.3-0.44,0.57-0.6,0.8c-0.16,0.23-0.3,0.44-0.43,0.64c-0.12,0.19-0.21,0.35-0.27,0.48
			c-0.06,0.13-0.1,0.23-0.12,0.31c-0.05,0.2,0.09,0.39,0.4,0.58c0.31,0.19,0.67,0.35,1.09,0.48c-0.05,0.17-0.09,0.34-0.14,0.52
			c-1.42-0.37-2.84-0.71-4.27-1.01c0.04-0.17,0.07-0.35,0.11-0.52c0.14,0.02,0.32,0.03,0.54,0.03c0.22,0,0.41-0.02,0.56-0.07
			c0.24-0.08,0.44-0.18,0.6-0.3c0.15-0.12,0.31-0.29,0.49-0.52c0.89-1.17,1.89-2.47,3.04-3.91c1.14-1.43,2.19-2.69,3.14-3.79
			c0.23,0.06,0.47,0.13,0.7,0.2c0.55,3.35,0.98,6.69,1.28,10.02c0.02,0.21,0.06,0.39,0.12,0.54c0.06,0.15,0.17,0.31,0.31,0.48
			c0.1,0.11,0.24,0.22,0.42,0.33c0.18,0.11,0.33,0.19,0.46,0.24C92.7,21.33,92.64,21.49,92.59,21.66z M89.32,16.04
			c-0.2-1.5-0.43-3-0.68-4.5c-0.97,1.17-1.93,2.34-2.86,3.53C86.97,15.37,88.15,15.69,89.32,16.04z"/>
		<path d="M105.13,27c-0.95-0.49-1.91-0.95-2.87-1.41c-0.22-1.2-0.45-2.26-0.69-3.16c-0.24-0.9-0.52-1.85-0.87-2.83
			c-0.39-0.17-0.78-0.33-1.17-0.49c-0.43,1.05-0.86,2.09-1.28,3.14c-0.07,0.16-0.1,0.32-0.09,0.46c0.01,0.15,0.09,0.29,0.25,0.43
			c0.08,0.07,0.23,0.17,0.45,0.29c0.22,0.13,0.41,0.23,0.57,0.3c-0.07,0.16-0.14,0.33-0.21,0.49c-1.53-0.66-3.07-1.27-4.63-1.85
			c0.06-0.17,0.12-0.33,0.19-0.5c0.13,0.04,0.32,0.09,0.56,0.15c0.25,0.07,0.42,0.1,0.53,0.1c0.18,0,0.33-0.05,0.44-0.14
			c0.12-0.09,0.21-0.23,0.28-0.41c0.93-2.4,1.86-4.8,2.8-7.2c0.06-0.16,0.09-0.32,0.08-0.47c-0.01-0.15-0.1-0.3-0.29-0.44
			c-0.13-0.1-0.3-0.21-0.51-0.33c-0.21-0.12-0.4-0.22-0.56-0.28c0.06-0.17,0.12-0.33,0.19-0.5c1.88,0.7,3.75,1.45,5.6,2.25
			c0.51,0.22,0.97,0.47,1.37,0.76c0.4,0.28,0.74,0.61,1.01,0.96c0.26,0.34,0.42,0.71,0.49,1.1c0.06,0.39,0,0.79-0.2,1.2
			c-0.18,0.37-0.4,0.67-0.67,0.89c-0.27,0.22-0.59,0.37-0.95,0.46c-0.33,0.08-0.7,0.12-1.1,0.11c-0.4-0.01-0.83-0.06-1.28-0.14
			c0.28,0.89,0.49,1.63,0.66,2.23c0.16,0.6,0.36,1.33,0.58,2.2c0.1,0.38,0.2,0.68,0.32,0.89c0.12,0.22,0.24,0.41,0.38,0.58
			c0.1,0.12,0.24,0.25,0.42,0.38c0.18,0.13,0.33,0.23,0.46,0.3C105.29,26.68,105.21,26.84,105.13,27z M104.46,17.84
			c0.27-0.59,0.28-1.15,0.02-1.68c-0.26-0.53-0.77-0.96-1.53-1.29c-0.48-0.2-0.96-0.4-1.44-0.6c-0.58,1.41-1.16,2.82-1.73,4.24
			c0.35,0.15,0.71,0.29,1.06,0.44c0.74,0.31,1.45,0.38,2.13,0.2C103.64,18.97,104.14,18.53,104.46,17.84z"/>
	</g>
</g>
<g class="st0">
	<g class="st1">
		<path d="M11.11,24.89c-0.64,0.29-1.31,0.46-2,0.51c-0.69,0.05-1.37-0.02-2.04-0.22c-0.66-0.2-1.28-0.54-1.85-1.01
			c-0.58-0.47-1.06-1.08-1.45-1.85c-0.39-0.76-0.6-1.52-0.64-2.28c-0.04-0.76,0.08-1.49,0.35-2.18c0.27-0.69,0.69-1.32,1.25-1.88
			c0.56-0.57,1.24-1.03,2.02-1.38c0.58-0.26,1.13-0.43,1.66-0.52c0.52-0.09,1.05-0.11,1.56-0.07c0.05-0.21,0.1-0.41,0.14-0.62
			c0.22-0.09,0.45-0.19,0.67-0.28c0.51,1.16,1.02,2.33,1.52,3.49c-0.22,0.09-0.44,0.18-0.67,0.28c-0.23-0.31-0.52-0.62-0.86-0.95
			c-0.34-0.33-0.69-0.58-1.05-0.75c-0.4-0.2-0.82-0.31-1.26-0.33c-0.44-0.02-0.9,0.08-1.36,0.29c-0.53,0.24-0.98,0.57-1.35,0.97
			C5.4,16.52,5.14,17,4.99,17.54c-0.14,0.52-0.16,1.1-0.06,1.75c0.1,0.65,0.32,1.32,0.66,2.02c0.3,0.61,0.67,1.13,1.09,1.56
			c0.43,0.43,0.9,0.76,1.41,0.99c0.51,0.23,1.04,0.35,1.59,0.36c0.55,0.01,1.09-0.11,1.64-0.35c0.41-0.18,0.77-0.41,1.06-0.68
			c0.3-0.27,0.53-0.55,0.71-0.86c0.17-0.31,0.3-0.64,0.39-0.98c0.09-0.34,0.13-0.69,0.13-1.05c0.23,0,0.46,0,0.69,0.01
			c-0.05,1.17-0.35,2.11-0.9,2.83C12.87,23.86,12.1,24.44,11.11,24.89z"/>
		<path d="M28.26,18.38c-1.56,0.43-3.11,0.9-4.66,1.4c-0.05-0.17-0.11-0.34-0.16-0.51c0.4-0.16,0.73-0.31,0.98-0.47
			c0.25-0.16,0.36-0.29,0.33-0.39c-0.01-0.04-0.03-0.09-0.06-0.15c-0.03-0.06-0.06-0.11-0.1-0.15c-0.55-0.67-1.1-1.33-1.66-1.99
			c-1.35,0.43-2.69,0.88-4.02,1.36c-0.03,0.38-0.05,0.72-0.05,0.99c0,0.28-0.01,0.54,0,0.77c0.01,0.23,0.02,0.41,0.04,0.55
			c0.02,0.14,0.05,0.25,0.07,0.33c0.07,0.19,0.29,0.27,0.65,0.26c0.37-0.01,0.76-0.09,1.18-0.21c0.06,0.17,0.12,0.34,0.18,0.5
			c-1.39,0.49-2.78,1-4.15,1.54c-0.07-0.17-0.13-0.33-0.19-0.5c0.13-0.06,0.29-0.15,0.47-0.28c0.19-0.12,0.33-0.25,0.43-0.37
			c0.16-0.21,0.27-0.4,0.33-0.58c0.06-0.18,0.1-0.42,0.12-0.7c0.09-1.47,0.21-3.11,0.36-4.94c0.15-1.83,0.31-3.46,0.47-4.89
			c0.23-0.08,0.46-0.15,0.68-0.23c2.31,2.47,4.54,5,6.67,7.57c0.14,0.16,0.27,0.29,0.41,0.38c0.13,0.09,0.31,0.16,0.52,0.22
			c0.14,0.03,0.32,0.04,0.53,0.03c0.21-0.01,0.38-0.03,0.52-0.06C28.16,18.04,28.21,18.21,28.26,18.38z M22.41,15.58
			c-1.01-1.13-2.03-2.24-3.08-3.35c-0.15,1.51-0.28,3.02-0.39,4.52C20.1,16.34,21.25,15.95,22.41,15.58z"/>
		<path d="M37.69,8.01c-0.21,0.04-0.43,0.08-0.64,0.12c-0.19-0.37-0.52-0.74-0.99-1.11c-0.47-0.37-0.89-0.54-1.25-0.51
			c-0.18,0.02-0.4,0.05-0.65,0.09c-0.25,0.04-0.53,0.09-0.84,0.16c-0.69,0.15-1.38,0.3-2.07,0.46c0.32,1.39,0.64,2.79,0.96,4.18
			c0.46-0.11,0.91-0.21,1.37-0.31c0.42-0.09,0.73-0.2,0.95-0.32c0.21-0.12,0.39-0.28,0.52-0.47c0.09-0.13,0.16-0.32,0.21-0.57
			c0.05-0.25,0.06-0.5,0.04-0.77c0.21-0.04,0.43-0.09,0.64-0.13c0.27,1.37,0.54,2.75,0.81,4.12c-0.21,0.04-0.41,0.08-0.62,0.12
			c-0.06-0.21-0.17-0.45-0.32-0.7c-0.15-0.26-0.3-0.43-0.43-0.53c-0.2-0.15-0.44-0.23-0.71-0.24c-0.27-0.01-0.58,0.02-0.94,0.1
			c-0.46,0.1-0.91,0.2-1.37,0.31c0.28,1.19,0.55,2.39,0.83,3.58c0.04,0.16,0.11,0.3,0.2,0.41c0.1,0.11,0.25,0.19,0.44,0.22
			c0.09,0.02,0.27,0.02,0.55,0.01c0.28-0.01,0.49-0.03,0.63-0.05c0.04,0.17,0.08,0.35,0.11,0.52c-1.64,0.36-3.28,0.75-4.91,1.17
			c-0.04-0.17-0.09-0.34-0.13-0.52c0.16-0.05,0.37-0.12,0.63-0.21c0.26-0.09,0.43-0.16,0.5-0.22c0.14-0.1,0.24-0.23,0.28-0.37
			c0.04-0.14,0.04-0.3,0-0.48c-0.61-2.5-1.23-4.99-1.84-7.49c-0.04-0.16-0.11-0.3-0.2-0.4c-0.09-0.11-0.25-0.18-0.47-0.2
			c-0.17-0.02-0.39-0.03-0.67-0.01C28,7.98,27.79,8.01,27.63,8.04c-0.05-0.17-0.09-0.34-0.13-0.52c3.22-0.84,6.46-1.55,9.72-2.14
			C37.37,6.26,37.53,7.13,37.69,8.01z"/>
		<path d="M51.23,11.19c0,1.05,0.01,2.1,0.01,3.15c-3.2,0.24-6.39,0.62-9.56,1.12c-0.03-0.18-0.06-0.35-0.08-0.53
			c0.16-0.04,0.37-0.09,0.64-0.16c0.27-0.07,0.44-0.13,0.51-0.18c0.16-0.1,0.27-0.21,0.32-0.34c0.05-0.13,0.06-0.28,0.04-0.47
			c-0.36-2.53-0.73-5.07-1.09-7.6c-0.02-0.16-0.08-0.3-0.16-0.42c-0.08-0.12-0.23-0.2-0.45-0.25c-0.17-0.04-0.39-0.07-0.66-0.08
			c-0.27-0.01-0.49-0.01-0.65,0.01c-0.03-0.18-0.06-0.35-0.08-0.53c3.22-0.51,6.46-0.9,9.71-1.16c0.07,0.86,0.14,1.71,0.21,2.57
			c-0.22,0.02-0.43,0.04-0.65,0.05C49.13,6,48.84,5.61,48.42,5.22c-0.43-0.39-0.82-0.59-1.18-0.59c-0.18,0-0.4,0.01-0.66,0.02
			c-0.25,0.02-0.54,0.04-0.87,0.08c-0.65,0.07-1.31,0.15-1.96,0.24c0.18,1.4,0.36,2.81,0.54,4.21c0.45-0.06,0.91-0.11,1.36-0.17
			c0.44-0.05,0.75-0.12,0.95-0.22c0.19-0.09,0.36-0.23,0.49-0.42c0.11-0.16,0.2-0.36,0.26-0.61c0.06-0.25,0.1-0.49,0.11-0.7
			c0.22-0.02,0.43-0.04,0.65-0.06c0.13,1.39,0.27,2.78,0.4,4.17c-0.21,0.02-0.42,0.04-0.63,0.06c-0.05-0.24-0.13-0.48-0.26-0.74
			c-0.13-0.26-0.25-0.44-0.37-0.55c-0.2-0.18-0.41-0.28-0.64-0.32c-0.23-0.04-0.53-0.03-0.9,0.01c-0.45,0.05-0.9,0.11-1.36,0.17
			c0.14,1.06,0.27,2.12,0.41,3.18c0.04,0.32,0.1,0.57,0.17,0.74c0.07,0.18,0.19,0.3,0.34,0.38c0.15,0.08,0.35,0.11,0.6,0.11
			c0.25,0,0.6-0.03,1.05-0.08c0.18-0.02,0.42-0.05,0.71-0.08c0.29-0.03,0.54-0.07,0.74-0.11c0.2-0.04,0.42-0.1,0.63-0.17
			c0.22-0.07,0.37-0.16,0.45-0.26c0.23-0.26,0.46-0.65,0.7-1.16c0.24-0.51,0.39-0.88,0.45-1.12C50.83,11.22,51.03,11.2,51.23,11.19z
			"/>
		<path d="M71.63,8.27c-0.34-0.01-0.68,0.02-1.03,0.09c-0.35,0.06-0.62,0.19-0.82,0.38c-0.13,0.11-0.26,0.28-0.4,0.51
			c-0.14,0.23-0.3,0.49-0.49,0.8c-0.19,0.31-0.38,0.61-0.58,0.91c-0.19,0.3-0.43,0.6-0.72,0.89c0.21,0.25,0.46,0.53,0.76,0.84
			c0.3,0.3,0.56,0.53,0.77,0.67c0.21,0.13,0.51,0.25,0.91,0.36c0.39,0.11,0.72,0.19,0.97,0.22c-0.02,0.18-0.03,0.35-0.05,0.53
			c-1.12-0.1-2.24-0.18-3.35-0.25c-0.38-0.45-0.76-0.9-1.15-1.35c-0.19,0.17-0.41,0.35-0.65,0.53c-0.24,0.18-0.49,0.34-0.75,0.47
			c-0.29,0.14-0.58,0.25-0.87,0.32c-0.29,0.08-0.62,0.11-1.01,0.1c-0.4-0.01-0.8-0.07-1.19-0.18c-0.39-0.11-0.76-0.29-1.08-0.53
			c-0.32-0.23-0.57-0.53-0.77-0.89c-0.2-0.36-0.3-0.79-0.3-1.29c0-0.62,0.18-1.19,0.55-1.69c0.37-0.5,1.06-1.04,2.09-1.59
			c-0.45-0.55-0.81-1.01-1.07-1.41c-0.26-0.39-0.39-0.83-0.38-1.32c0-0.35,0.08-0.66,0.25-0.95c0.16-0.29,0.39-0.54,0.69-0.75
			c0.27-0.19,0.61-0.34,1-0.44c0.39-0.1,0.79-0.15,1.2-0.14c0.48,0.01,0.89,0.09,1.24,0.23c0.35,0.14,0.64,0.32,0.85,0.54
			c0.2,0.2,0.34,0.43,0.44,0.68c0.1,0.26,0.14,0.51,0.12,0.76c-0.03,0.6-0.27,1.11-0.72,1.52c-0.45,0.41-1.05,0.78-1.81,1.1
			c0.52,0.65,1.02,1.26,1.5,1.8c0.48,0.55,0.94,1.09,1.37,1.62c0.4-0.51,0.72-1,0.96-1.46c0.24-0.46,0.37-0.87,0.39-1.23
			c0.01-0.16-0.11-0.3-0.37-0.4c-0.26-0.11-0.62-0.22-1.09-0.33c0.01-0.18,0.02-0.36,0.03-0.53c1.54,0.08,3.07,0.19,4.6,0.33
			C71.66,7.92,71.65,8.1,71.63,8.27z M66.03,12.42c-0.48-0.62-1.04-1.29-1.67-2.01c-0.63-0.73-1.14-1.33-1.53-1.83
			c-0.47,0.27-0.8,0.6-0.99,0.97c-0.19,0.38-0.29,0.81-0.3,1.3c-0.01,0.68,0.2,1.25,0.62,1.71c0.42,0.46,0.98,0.69,1.69,0.71
			c0.4,0.01,0.79-0.05,1.19-0.2C65.44,12.92,65.77,12.7,66.03,12.42z M65.67,5.43c0.02-0.51-0.09-0.91-0.35-1.19
			c-0.25-0.28-0.63-0.43-1.11-0.45c-0.28-0.01-0.51,0.03-0.69,0.12C63.34,4,63.18,4.12,63.04,4.26c-0.12,0.14-0.21,0.29-0.26,0.45
			c-0.06,0.16-0.08,0.3-0.09,0.43c-0.01,0.35,0.09,0.7,0.29,1.06c0.2,0.36,0.51,0.79,0.94,1.31c0.6-0.27,1.03-0.57,1.31-0.9
			C65.51,6.27,65.66,5.88,65.67,5.43z"/>
		<path d="M88.42,12.24c0.3,0.29,0.52,0.62,0.66,1.01c0.15,0.39,0.16,0.82,0.05,1.29c-0.12,0.48-0.34,0.87-0.65,1.17
			c-0.32,0.3-0.69,0.52-1.11,0.67c-0.41,0.14-0.86,0.22-1.33,0.24c-0.48,0.02-0.96-0.02-1.44-0.12c-1.8-0.37-3.6-0.71-5.41-1
			c0.03-0.18,0.06-0.35,0.08-0.53c0.13,0.01,0.32,0.02,0.58,0.03c0.25,0.01,0.44,0,0.56-0.03c0.18-0.04,0.32-0.11,0.41-0.22
			c0.09-0.1,0.15-0.25,0.18-0.43c0.44-2.52,0.88-5.04,1.32-7.57c0.03-0.17,0.02-0.32-0.02-0.46c-0.04-0.14-0.16-0.27-0.34-0.38
			c-0.16-0.1-0.35-0.19-0.56-0.27c-0.21-0.08-0.39-0.13-0.53-0.16c0.03-0.18,0.06-0.35,0.08-0.53c1.92,0.31,3.84,0.66,5.75,1.06
			c0.44,0.09,0.86,0.22,1.25,0.38c0.39,0.16,0.74,0.38,1.07,0.65c0.3,0.25,0.53,0.55,0.68,0.89c0.15,0.34,0.17,0.73,0.07,1.15
			c-0.09,0.37-0.24,0.67-0.46,0.92c-0.22,0.25-0.49,0.45-0.81,0.59c-0.3,0.14-0.64,0.23-1,0.3c-0.36,0.06-0.75,0.09-1.15,0.08
			c0,0.02-0.01,0.04-0.01,0.07c0.33,0.11,0.7,0.27,1.1,0.47C87.8,11.71,88.14,11.96,88.42,12.24z M86.74,10.21
			c0.25-0.17,0.45-0.37,0.59-0.6c0.14-0.23,0.24-0.52,0.32-0.86c0.13-0.57,0.04-1.07-0.26-1.47c-0.3-0.41-0.85-0.69-1.65-0.85
			c-0.18-0.04-0.42-0.08-0.7-0.13c-0.28-0.05-0.52-0.09-0.71-0.12c-0.25,1.35-0.51,2.69-0.76,4.04c0.36,0.07,0.71,0.14,1.07,0.21
			c0.46,0.09,0.86,0.12,1.21,0.09C86.19,10.47,86.49,10.38,86.74,10.21z M87.17,13.8c0.14-0.62,0.02-1.18-0.36-1.68
			c-0.38-0.5-1.02-0.84-1.89-1.02c-0.36-0.07-0.66-0.13-0.91-0.17c-0.25-0.04-0.43-0.07-0.56-0.09c-0.23,1.23-0.47,2.47-0.7,3.7
			c-0.06,0.31,0.04,0.57,0.28,0.78c0.25,0.21,0.61,0.36,1.1,0.46c0.8,0.16,1.46,0.08,1.98-0.25C86.62,15.21,86.98,14.63,87.17,13.8z
			"/>
		<path d="M101.97,21.51c-1.53-0.57-3.06-1.11-4.61-1.61c0.06-0.17,0.11-0.34,0.17-0.51c0.42,0.11,0.77,0.18,1.07,0.2
			c0.29,0.02,0.46-0.02,0.5-0.13c0.01-0.04,0.03-0.1,0.04-0.16c0.01-0.07,0.01-0.12,0.01-0.18c-0.05-0.86-0.11-1.72-0.18-2.59
			c-1.34-0.44-2.69-0.87-4.04-1.26c-0.25,0.29-0.46,0.55-0.63,0.77c-0.17,0.22-0.32,0.43-0.46,0.62c-0.13,0.19-0.23,0.34-0.29,0.47
			c-0.06,0.12-0.11,0.23-0.13,0.31c-0.06,0.19,0.07,0.39,0.37,0.59c0.3,0.2,0.66,0.38,1.07,0.52c-0.05,0.17-0.1,0.34-0.15,0.51
			c-1.41-0.42-2.82-0.82-4.24-1.19c0.05-0.17,0.09-0.34,0.14-0.52c0.14,0.03,0.32,0.04,0.54,0.05c0.22,0.01,0.41-0.01,0.56-0.05
			c0.25-0.07,0.45-0.16,0.61-0.27c0.16-0.11,0.33-0.28,0.51-0.5c0.93-1.13,1.99-2.4,3.18-3.79c1.19-1.39,2.28-2.61,3.25-3.68
			c0.23,0.07,0.46,0.14,0.69,0.22c0.42,3.36,0.73,6.71,0.95,10.05c0.01,0.21,0.05,0.39,0.11,0.54c0.06,0.15,0.16,0.31,0.3,0.48
			c0.1,0.11,0.23,0.22,0.41,0.34c0.18,0.12,0.33,0.2,0.46,0.25C102.1,21.18,102.04,21.34,101.97,21.51z M98.88,15.8
			c-0.15-1.5-0.32-3.01-0.52-4.52c-1.01,1.13-2,2.28-2.97,3.43C96.56,15.06,97.72,15.42,98.88,15.8z"/>
		<path d="M114.46,27c-0.95-0.49-1.91-0.96-2.87-1.41c-0.21-1.21-0.43-2.26-0.66-3.17c-0.23-0.9-0.5-1.85-0.83-2.84
			c-0.38-0.17-0.77-0.34-1.16-0.5c-0.44,1.04-0.89,2.08-1.33,3.12c-0.07,0.16-0.1,0.32-0.1,0.46c0,0.15,0.08,0.29,0.24,0.44
			c0.08,0.07,0.23,0.17,0.45,0.3c0.22,0.13,0.41,0.23,0.56,0.3c-0.07,0.16-0.14,0.33-0.22,0.49c-1.52-0.67-3.06-1.32-4.6-1.92
			c0.07-0.17,0.13-0.33,0.2-0.5c0.13,0.04,0.31,0.09,0.56,0.16c0.24,0.07,0.42,0.11,0.53,0.11c0.18,0,0.33-0.04,0.44-0.13
			c0.12-0.09,0.21-0.22,0.29-0.4c0.97-2.38,1.95-4.77,2.92-7.15c0.07-0.16,0.1-0.32,0.09-0.47c0-0.15-0.1-0.3-0.28-0.45
			c-0.12-0.1-0.29-0.21-0.5-0.33c-0.21-0.12-0.39-0.22-0.54-0.29c0.07-0.17,0.13-0.33,0.2-0.5c1.84,0.72,3.66,1.49,5.47,2.3
			c0.5,0.22,0.94,0.48,1.34,0.76c0.4,0.29,0.73,0.6,0.99,0.96c0.25,0.34,0.41,0.71,0.47,1.1c0.06,0.39-0.01,0.79-0.21,1.2
			c-0.18,0.37-0.41,0.67-0.68,0.89c-0.27,0.22-0.59,0.37-0.94,0.46c-0.33,0.08-0.7,0.12-1.1,0.1c-0.4-0.01-0.82-0.06-1.27-0.14
			c0.27,0.89,0.47,1.63,0.63,2.23c0.16,0.6,0.35,1.33,0.57,2.2c0.09,0.38,0.2,0.68,0.31,0.89c0.12,0.22,0.24,0.41,0.38,0.58
			c0.1,0.12,0.24,0.25,0.42,0.38c0.18,0.13,0.33,0.23,0.46,0.3C114.63,26.68,114.55,26.84,114.46,27z M113.86,17.85
			c0.27-0.59,0.29-1.14,0.04-1.67c-0.25-0.53-0.74-0.96-1.49-1.29c-0.47-0.21-0.94-0.41-1.41-0.61c-0.6,1.4-1.2,2.81-1.79,4.21
			c0.35,0.15,0.7,0.3,1.05,0.45c0.73,0.32,1.43,0.39,2.11,0.21C113.04,18.97,113.54,18.54,113.86,17.85z"/>
	</g>
</g>
</svg>
