<?xml version="1.0" encoding="utf-8"?>
<!-- Generator: Adobe Illustrator 26.0.1, SVG Export Plug-In . SVG Version: 6.00 Build 0)  -->
<svg version="1.1" id="レイヤー_1" xmlns="http://www.w3.org/2000/svg" xmlns:xlink="http://www.w3.org/1999/xlink" x="0px"
	 y="0px" viewBox="0 0 365 365" style="enable-background:new 0 0 365 365;" xml:space="preserve">
<style type="text/css">
	.st0{fill:none;stroke:#000000;stroke-width:25;stroke-miterlimit:9.9999;}
</style>
<path class="st0" d="M165.1,107.7c41.3-41.3,108.3-41.3,149.6,0s41.3,108.3,0,149.6s-108.3,41.3-149.6,0S123.8,149,165.1,107.7z
	 M239.9,288.3c-14.5,0-28.1,0-43.6,0c-58.4,0-105.8-47.4-105.8-105.8S137.8,76.7,196.3,76.7c14.6,0,29.9,0,43.6,0 M64.1,64.1
	c65.4-65.4,171.5-65.4,236.9,0s65.4,171.5,0,236.9s-171.5,65.4-236.9,0S-1.4,129.5,64.1,64.1z M195.1,289
	c15.3,0,27.6,12.4,27.6,27.6s-12.4,27.6-27.6,27.6s-27.6-12.4-27.6-27.6S179.9,289,195.1,289z"/>
</svg>
