<?xml version="1.0" encoding="utf-8"?>
<!-- Generator: Adobe Illustrator 26.0.1, SVG Export Plug-In . SVG Version: 6.00 Build 0)  -->
<svg version="1.1" id="レイヤー_1" xmlns="http://www.w3.org/2000/svg" xmlns:xlink="http://www.w3.org/1999/xlink" x="0px"
	 y="0px" viewBox="0 0 380 380" style="enable-background:new 0 0 380 380;" xml:space="preserve">
<style type="text/css">
	.st0{fill:none;stroke:#231815;stroke-width:30;stroke-linecap:round;stroke-linejoin:round;stroke-miterlimit:10;}
</style>
<path class="st0" d="M119.4,219.9c0,0.2-0.1,0.4-0.1,0.7c-6.6,43.7-26.8,75.6-50.8,75.6c-29.3,0-53.1-47.5-53.1-106.1
	S39.2,84,68.5,84c23.8,0,44,31.4,50.7,74.6c0,0.3,0.1,0.5,0.1,0.8 M223.8,190c0,77.8,31.5,140.8,70.4,140.8s70.4-63.1,70.4-140.8
	c0-77.8-31.5-140.8-70.4-140.8C255.3,49.2,223.8,112.2,223.8,190z M70.2,164.6c0,0,31.8,0.9,66.1-9.5C177.6,142.5,261,65.7,261,65.7
	 M260.4,312.3v1.2c0,0-83.6-75.4-124.6-88.4c-29.9-9.5-65.5-9.5-65.5-9.5"/>
</svg>
