<?xml version="1.0" encoding="utf-8"?>
<!-- Generator: Adobe Illustrator 26.0.1, SVG Export Plug-In . SVG Version: 6.00 Build 0)  -->
<svg version="1.1" id="レイヤー_1" xmlns="http://www.w3.org/2000/svg" xmlns:xlink="http://www.w3.org/1999/xlink" x="0px"
	 y="0px" viewBox="0 0 2960 1440" style="enable-background:new 0 0 2960 1440;" xml:space="preserve">
<style type="text/css">
	.st0{fill:#231815;}
	.st1{fill:none;stroke:#231815;stroke-width:10;stroke-miterlimit:10;}
	.st2{fill:none;stroke:#231815;stroke-width:10;stroke-miterlimit:10.0002;}
	.st3{fill:none;stroke:#231815;stroke-width:20;stroke-miterlimit:9.9999;}
	.st4{fill:none;stroke:#231815;stroke-width:30;stroke-miterlimit:9.9999;}
	.st5{fill:none;stroke:#000000;stroke-width:10;stroke-miterlimit:10;}
</style>
<g id="stamp">
	<g>
		<path class="st0" d="M1087,391.6c-7,0-12.8-2.2-17.3-6.6c-4.5-4.4-6.8-11.1-6.8-20.2c0-6.6,1.3-13.1,3.9-19.5
			c2.6-6.4,6-12.1,10.3-17.1c4.3-5.1,9.2-9.1,14.5-12.1c5.3-3,10.8-4.5,16.3-4.5c5.7,0,9.8,1.4,12.3,4.3c2.5,2.8,3.7,6.2,3.7,9.9
			c0,3.8-0.9,7.5-2.7,11.1s-4.3,5.4-7.4,5.4c-2.6,0-4.7-1.3-6.3-3.9c1.4-0.9,2.8-2.7,4.3-5.3c1.5-2.6,2.2-5.9,2.2-9.9
			c0-1.1-0.3-1.9-0.8-2.5c-0.5-0.6-1.6-0.9-3-0.9c-3.4,0-6.9,1.5-10.7,4.6c-3.7,3-7.2,7-10.3,11.8c-3.2,4.8-5.7,9.9-7.7,15.2
			c-2,5.3-2.9,10.2-2.9,14.7c0,3.8,1,7.3,2.9,10.4c2,3.2,5.8,4.8,11.5,4.8c5.1,0,10.5-1.5,16-4.5c5.5-3,10.7-7.1,15.6-12.5
			c4.9-5.3,8.8-11.7,11.8-19.2l4.1,3.6c-3.2,8.2-7.7,15.6-13.5,22c-5.7,6.4-12.1,11.5-19.1,15.2
			C1100.8,389.7,1093.9,391.6,1087,391.6z"/>
		<path class="st0" d="M1143,389.8c-4.5,0-8.4-1.5-11.7-4.5c-3.3-3-5-7.4-5-13.4c0-4.7,1.1-9.9,3.2-15.4c2.2-5.5,5.1-11,8.9-16.4
			c3.8-5.4,8.1-10.3,13-14.7c4.9-4.4,10.1-7.9,15.6-10.7c5.5-2.7,11.1-4.1,16.6-4.1c5.8,0,10.7,1.5,14.8,4.5c4.1,3,6.1,6.9,6.1,11.8
			c0,3.6-1.3,6.3-3.9,7.9c-2.6,1.6-5.6,2.1-9.1,1.4c0.3-1.2,0.5-2.4,0.7-3.6c0.2-1.2,0.3-2.5,0.3-3.9c0-2.7-0.5-5.1-1.6-7.3
			c-1.1-2.2-3.4-3.2-6.9-3.2c-3.8,0-7.6,1.3-11.6,3.9c-3.9,2.6-7.7,5.9-11.3,10c-3.6,4.1-6.8,8.7-9.6,13.6
			c-2.8,4.9-5.1,9.8-6.7,14.5c-1.6,4.7-2.4,9-2.4,12.8c0,4.3,1.5,6.5,4.7,6.5c3.1,0,6.6-1.5,10.3-4.6c3.8-3,7.6-6.9,11.5-11.5
			c3.9-4.6,7.5-9.3,11.1-14.1c3.5-4.8,6.6-8.9,9.1-12.3c0.4-0.7,0.9-1,1.6-1c0.5,0.1,1.6,0.4,3.1,0.9c1.5,0.5,3,1.2,4.4,2.1
			c1.4,0.9,2,2.2,2,3.6c0,1.4-0.6,3.1-1.7,5.2c-1.2,2.1-2.5,4.4-4.1,6.9c-1.6,2.5-2.9,5-4.1,7.5c-1.2,2.5-1.7,4.9-1.7,7.2
			c0,1.8,0.5,3.4,1.4,5c0.9,1.6,2.5,2.3,4.7,2.3c3.2,0,7.8-2.4,13.7-7.2c5.9-4.8,11.9-12.9,17.9-24.4l3.9,3.9
			c-3.2,7.3-7.1,13.8-11.7,19.4s-9.3,10-14.3,13.2s-10.1,4.8-15.2,4.8c-5.5,0-9.7-1.8-12.4-5.3c-2.7-3.5-4.2-7.3-4.5-11.4
			c0-0.3,0-0.5,0-0.6c0-0.1,0-0.3,0-0.4c-5.4,6.5-10.4,11.6-14.9,15.4C1153,387.9,1148.1,389.8,1143,389.8z"/>
		<path class="st0" d="M1221.5,437c-1.5,0-3.3-0.5-5.4-1.4c-2.1-0.9-3.9-2.8-5.5-5.6c-1.5-2.8-2.3-6.9-2.3-12.5
			c0-5.8,1-13.4,2.9-22.8c2-9.4,4.7-19.8,8.1-31.2c3.5-11.4,7.5-23.1,12.2-35.2c4.7-12,9.7-23.6,15-34.8
			c5.3-11.2,10.9-21.2,16.6-30.1c5.7-8.9,11.5-16,17.1-21.3c5.7-5.3,11.2-7.9,16.4-7.9c3.5,0,5.8,1,6.9,3.1c1.1,2.1,1.6,4.5,1.6,7.2
			c0,5.8-1.6,12.2-4.8,19.1c-3.2,6.9-7.4,13.8-12.7,20.8c-5.3,7-11.2,13.6-17.7,19.8c-6.6,6.2-13.3,11.6-20.2,16
			c-0.5,1.4-1.1,2.7-1.6,4.1c-0.5,1.4-1.1,2.7-1.6,4.1c1.5,0.5,2.7,1.5,3.6,2.8c0.9,1.4,1.4,2.8,1.5,4.3c1.1,5.8,2.2,11,3.2,15.5
			c1.1,4.5,2.7,8.1,5,10.7c2.2,2.6,5.4,3.9,9.6,3.9c4.7,0,8.9-1.8,12.6-5.3c3.6-3.5,7.4-8.5,11.2-14.8l4.5,3.2
			c-4.3,8.7-9.2,15-14.6,19c-5.4,4-10.3,6-14.6,6c-2.3,0-4.7-0.5-7.2-1.4c-2.5-0.9-4.9-2.3-7.2-4.1c-0.1,8.4-1.1,16.7-2.9,24.8
			c-1.8,8.2-4.3,15.6-7.4,22.2c-3.1,6.6-6.6,11.9-10.4,15.9C1229.5,435,1225.5,437,1221.5,437z M1227.2,424.5c1.5,0,3.1-1.3,4.8-3.9
			c1.7-2.6,3.3-5.9,5-10.1c1.6-4.2,3.1-8.8,4.5-13.9c1.4-5.1,2.4-10.1,3.2-15c0.8-4.9,1.2-9.4,1.2-13.5c0-3.9-0.4-7.4-1.3-10.4
			c-0.9-3-2.4-6.4-4.6-10.2c-3.1,9.3-5.9,18.3-8.3,27c-2.4,8.6-4.3,16.5-5.7,23.6c-1.4,7.1-2,13-2,17.7
			C1223.9,421.5,1225,424.5,1227.2,424.5z M1255.7,306c8.2-7.7,15.3-15.2,21.1-22.5c5.8-7.3,10.2-13.8,13.3-19.4
			c3-5.6,4.6-9.6,4.6-11.9c0-1.1-0.5-1.6-1.6-1.6c-3.2,0-7,2.5-11.2,7.4c-4.2,4.9-8.5,11.6-13,20
			C1264.5,286.4,1260.1,295.7,1255.7,306z"/>
		<path class="st0" d="M1312.1,389.2c-8.7,0-15.3-2.3-20-7s-7-10.5-7-17.5c0-5.9,1.5-12.3,4.6-19c3-6.7,7.1-13,12.3-18.9
			c5.1-5.9,10.8-10.7,17-14.3s12.4-5.5,18.7-5.5c3.5,0,6.9,0.9,10,2.7c3.2,1.8,4.8,5.4,4.8,10.8c0,5.1-1.5,9.9-4.5,14.4
			c-3,4.5-7,8.5-12,12c-5,3.5-10.5,6.4-16.5,8.6c-6,2.2-12.1,3.7-18.1,4.4c-0.1,0.5-0.2,1.1-0.3,1.7c-0.1,0.6-0.1,1.6-0.1,2.9
			c0,0.7,0.1,1.9,0.3,3.6c0.2,1.7,0.8,3.5,1.7,5.4c0.9,1.9,2.5,3.5,4.7,4.9c2.2,1.4,5.1,2,8.9,2c5.7,0,11.4-1.6,17.1-4.8
			c5.7-3.2,11.2-7.4,16.2-12.7c5.1-5.3,9.3-11.2,12.7-17.6l4.1,3.2c-3.6,8.1-8.4,15.2-14.1,21.3c-5.7,6.1-12.1,10.8-19.1,14.2
			C1326.6,387.5,1319.4,389.2,1312.1,389.2z M1303.6,352.5c3.5-0.4,7.4-1.6,11.8-3.6c4.3-2,8.5-4.6,12.5-7.7c4-3.1,7.3-6.5,9.8-10.2
			c2.6-3.7,3.9-7.5,3.9-11.3c0-1.5-0.3-2.5-0.8-3c-0.5-0.5-1.4-0.8-2.6-0.8c-3.1,0-6.4,1.1-9.7,3.3c-3.4,2.2-6.7,5.1-9.9,8.7
			c-3.2,3.6-6.2,7.5-8.7,11.9C1307.1,344,1305.1,348.3,1303.6,352.5z"/>
	</g>
	<g>
		<path class="st0" d="M1626.4,1167.9c-7.7,0-13.6-2.4-17.5-7.2c-4-4.8-6-11.4-6-19.8c0-6.6,1.2-14.5,3.5-23.5
			c2.3-9.1,5.3-18.6,9.1-28.5c3.8-9.9,8-19.7,12.7-29.2c4.7-9.5,9.4-18.2,14.3-26c4.9-7.8,9.5-14,13.8-18.6c4.3-4.6,8-6.9,11.2-6.9
			c2.7,0,4.7,1.6,6.1,4.7c1.4,3.1,2.1,6.2,2.2,9.3c0,3.8-0.8,8.4-2.4,13.8c-1.6,5.4-3.9,11.2-6.9,17.2c-3,6.1-6.4,12.1-10.3,18
			c-3.9,5.9-8.2,11.4-12.9,16.2c-4.7,4.9-9.5,8.7-14.5,11.6c-0.9,1.8-2.1,4.8-3.6,9.1c-1.4,4.3-2.7,9.3-3.9,14.8
			c-1.2,5.5-1.7,11.1-1.7,16.6c0,5.4,0.8,10,2.3,13.9c1.5,3.9,4.3,5.8,8.2,5.8c3.5,0,7.3-1.6,11.4-4.9c4.1-3.2,7.4-7.2,9.9-11.8
			c-5-2.7-8.8-6.5-11.4-11.4c-2.6-4.9-3.9-10-3.9-15.4c0-6.6,1.8-12,5.4-16c3.6-4.1,7.9-6.1,13.1-6.1c4.3,0,7.9,1.7,10.7,5
			c2.8,3.3,4.3,8.4,4.3,15.3c0,3.9-0.5,8.1-1.5,12.5c-1,4.4-2.5,8.8-4.6,13.1c0.7,0,1.3,0,1.7,0.1c0.5,0.1,1.1,0.1,1.9,0.1
			c4.7,0,8.8-1.3,12.2-3.9c3.4-2.6,6.2-5.6,8.5-9.1c2.3-3.5,4.1-6.7,5.5-9.5l3,4.3c-3.4,8-7.5,14.1-12.5,18.3
			c-4.9,4.2-11.4,6.3-19.4,6.3c-0.7,0-1.4,0-2.1,0c-0.7,0-1.4-0.1-2.1-0.2c-3.8,6.1-8.5,11.3-14.1,15.5
			C1640.6,1165.7,1634,1167.9,1626.4,1167.9z M1632.5,1086.3c3.4-3.1,6.7-6.7,9.8-10.8c3.2-4.1,6.2-8.5,8.9-13
			c2.8-4.5,5.2-9,7.3-13.4c2.1-4.4,3.8-8.4,5.2-12c1.4-3.6,2.2-6.4,2.4-8.6c0-0.3,0-0.5,0-0.7c0-0.2,0-0.4,0-0.5
			c-1.2,0.4-3.2,2.4-6,5.9c-2.8,3.5-5.9,8.1-9.3,13.7s-6.8,11.8-10,18.7C1637.6,1072.4,1634.8,1079.3,1632.5,1086.3z M1654.8,1136
			c1.2-2.7,2.1-5.4,2.7-8.2c0.6-2.8,0.9-5.8,0.9-9c0-4.9-0.6-8.5-1.7-10.7c-1.2-2.3-2.5-3.5-4.2-3.5c-1.8,0-3.3,1.2-4.6,3.6
			c-1.3,2.4-1.9,5.3-1.9,8.7c0,2.8,0.6,6.2,1.8,9.9C1649.2,1130.7,1651.5,1133.7,1654.8,1136z"/>
		<path class="st0" d="M1699.5,1162.6c-4.5,0-8.4-1.5-11.7-4.5c-3.3-3-5-7.4-5-13.4c0-4.7,1.1-9.9,3.2-15.4c2.2-5.5,5.1-11,8.9-16.4
			c3.8-5.4,8.1-10.3,13-14.7c4.9-4.4,10.1-7.9,15.6-10.7c5.5-2.7,11.1-4.1,16.6-4.1c5.8,0,10.7,1.5,14.8,4.5c4.1,3,6.1,6.9,6.1,11.8
			c0,3.6-1.3,6.3-3.9,7.9c-2.6,1.6-5.6,2.1-9.1,1.4c0.3-1.2,0.5-2.4,0.7-3.6s0.3-2.5,0.3-3.9c0-2.7-0.5-5.1-1.6-7.3
			c-1.1-2.2-3.4-3.2-6.9-3.2c-3.8,0-7.6,1.3-11.6,3.9c-3.9,2.6-7.7,5.9-11.3,10c-3.6,4.1-6.8,8.7-9.6,13.6
			c-2.8,4.9-5.1,9.8-6.7,14.5c-1.6,4.7-2.4,9-2.4,12.8c0,4.3,1.5,6.5,4.7,6.5c3.1,0,6.6-1.5,10.3-4.6c3.8-3,7.6-6.9,11.5-11.5
			c3.9-4.6,7.5-9.3,11.1-14.1c3.5-4.8,6.6-8.9,9.1-12.3c0.4-0.7,0.9-1,1.6-1c0.5,0.1,1.6,0.4,3.1,0.9c1.5,0.5,3,1.2,4.4,2.1
			c1.4,0.9,2,2.2,2,3.6c0,1.4-0.6,3.1-1.7,5.2c-1.2,2.1-2.5,4.4-4.1,6.9c-1.6,2.5-2.9,5-4.1,7.5c-1.2,2.5-1.7,4.9-1.7,7.2
			c0,1.8,0.5,3.4,1.4,5c0.9,1.6,2.5,2.3,4.7,2.3c3.2,0,7.8-2.4,13.7-7.2c5.9-4.8,11.9-12.9,17.9-24.4l3.9,3.9
			c-3.2,7.3-7.1,13.8-11.7,19.4c-4.5,5.6-9.3,10-14.3,13.2c-5,3.2-10.1,4.8-15.2,4.8c-5.5,0-9.7-1.8-12.4-5.3
			c-2.7-3.5-4.2-7.3-4.5-11.4c0-0.3,0-0.5,0-0.6c0-0.1,0-0.3,0-0.4c-5.4,6.5-10.4,11.6-14.9,15.4
			C1709.4,1160.7,1704.6,1162.6,1699.5,1162.6z"/>
		<path class="st0" d="M1815.7,1158.3c-5,0-9.1-1.3-12.2-4c-3.1-2.6-4.7-6.2-4.7-10.7c0-3.8,0.9-7.8,2.8-12.2
			c1.9-4.3,3.8-8.6,5.8-12.8c2-4.2,2.9-7.9,2.9-11.2c0-3.1-1-5.7-3-7.8c-2-2.1-4.4-3.8-7.1-5.2c-3,7.4-6.3,14.6-10,21.6
			c-3.7,7-6.7,12.4-9,16.3l-3-5.9c1.9-3.5,4.4-8.5,7.5-15c3.1-6.5,6.1-13.7,8.9-21.7c-1.4-1.4-2-3.2-2-5.5c0-3.5,1.1-6.8,3.2-9.9
			c2.2-3.1,4.3-4.7,6.3-4.7c1.6,0,2.8,0.9,3.6,2.7c0.7,1.8,1.1,3.1,1.1,3.7c0,0.7-0.3,1.9-0.9,3.6s-1,3-1.3,3.9
			c0.1,1.5,1.3,2.9,3.6,4.4c2.2,1.4,4.8,3.1,7.6,5c2.8,1.9,5.3,4.3,7.5,7.1c2.2,2.8,3.2,6.4,3.2,10.7c0,3.9-0.9,7.9-2.6,12
			s-3.5,7.8-5.3,11.4c-1.8,3.5-2.6,6.6-2.6,9.1c0,1.9,0.5,3.1,1.5,3.7c1,0.6,2.2,0.9,3.6,0.9c3.2,0,6.6-1,10.1-2.9
			c3.5-2,7-4.5,10.3-7.6c3.4-3.1,6.4-6.4,8.9-9.8c2.6-3.5,4.5-6.6,5.9-9.4l4.9,3.6c-2.6,5.8-6.3,11.5-11.2,17.1
			c-4.9,5.6-10.3,10.2-16.2,13.8C1827.8,1156.5,1821.7,1158.3,1815.7,1158.3z"/>
	</g>
	<path class="st1" d="M1228.4,1188.8c0.2,0.1,0.3,0.3,0.5,0.4c33.8,28.5,50.4,62.4,37.8,82.8c-15.3,25-68.3,20.4-118.2-10.3
		c-50-30.7-78-75.8-62.7-100.7c12.5-20.3,49.7-21.1,90.1-4.2c0.2,0.1,0.5,0.2,0.7,0.3"/>
	
		<ellipse transform="matrix(0.5231 -0.8523 0.8523 0.5231 -255.629 1591.6115)" class="st2" cx="1294.4" cy="1024.2" rx="70.4" ry="140.8"/>
	<path class="st1" d="M1171.1,987.5c0,0,21.8,111.3,10.9,153c-9,34.7-26.4,61.3-26.4,61.3"/>
	<path class="st1" d="M1380.8,1117l1.1,0.7c0,0-108,31.8-140.6,59.9c-23.7,20.5-42.4,50.9-42.4,50.9"/>
	
		<ellipse transform="matrix(0.7071 -0.7071 0.7071 0.7071 -75.6426 1257.3921)" class="st3" cx="1480" cy="720" rx="647.6" ry="647.6"/>
	<ellipse class="st4" cx="1480" cy="720" rx="704.2" ry="704.2"/>
</g>
<path class="st5" d="M1849,325.2c-30.3,49.9-95.2,65.7-145.1,35.4c-49.9-30.3-65.7-95.2-35.4-145.1s95.2-65.7,145.1-35.4
	C1863.5,210.4,1879.3,275.4,1849,325.2z M1849,325.2c-7.5,12.2-16.5,27.1-20.5,33.5c-32.1,52.6-77.9,65.5-120.8,51.4
	c-9.2-3-18.2-7.3-26.9-12.7c-9.8-6-18.5-13-25.9-20.7c-30-31.7-37.9-76.9-6.9-127.7c3.8-6.2,11.9-19.4,20.5-33.5 M1717.8,152.2
	c-92.2,6-162,85.5-156,177.7c6,92.2,85.5,162,177.7,156c92.2-6,162-85.5,156-177.7C1889.5,216,1810,146.2,1717.8,152.2z
	 M1867.5,347.9c-13-7.9-30-3.9-37.9,9.1c-7.9,13-3.9,30,9.1,37.9c13,7.9,30,3.9,37.9-9.1C1884.6,372.8,1880.5,355.8,1867.5,347.9z"
	/>
</svg>
