<?xml version="1.0" encoding="utf-8"?>
<!-- Generator: Adobe Illustrator 26.0.1, SVG Export Plug-In . SVG Version: 6.00 Build 0)  -->
<svg version="1.1" id="レイヤー_1" xmlns="http://www.w3.org/2000/svg" xmlns:xlink="http://www.w3.org/1999/xlink" x="0px"
	 y="0px" viewBox="0 0 2960 1440" style="enable-background:new 0 0 2960 1440;" xml:space="preserve">
<style type="text/css">
	.st0{fill:none;stroke:#231815;stroke-width:30;stroke-miterlimit:9.9999;}
	.st1{fill:#231815;}
	.st2{fill:none;stroke:#C8C9CA;stroke-width:33;stroke-linecap:round;stroke-linejoin:round;stroke-miterlimit:10;}
	.st3{fill:none;stroke:#C8C9CA;stroke-width:40;stroke-linecap:round;stroke-linejoin:round;stroke-miterlimit:10;}
</style>
<ellipse class="st0" cx="1480" cy="720" rx="704.2" ry="704.2"/>
<g id="base">
	<path class="st1" d="M1283.4,839.7c-9,0-16.8-3.7-23.5-11.2c-6.7-7.5-10-18.7-10-33.7c0-11.9,2.2-24.8,6.5-38.8
		c4.3-14,10.3-27.7,18-41.4c7.6-13.6,16.3-25.9,26.1-37c9.8-11.1,20.3-20,31.4-26.8c11.2-6.8,22.3-10.2,33.5-10.2
		c11.7,0,21.6,3.7,29.8,11.2c8.2,7.5,12.2,17.4,12.2,29.6c0,9.2-2.6,15.8-7.8,19.9c-5.2,4.1-11.3,5.3-18.4,3.6
		c0.5-3.1,1-6.1,1.4-9.2c0.4-3.1,0.6-6.3,0.6-9.7c0-6.8-1.1-12.9-3.3-18.4c-2.2-5.4-6.8-8.2-13.9-8.2c-7.6,0-15.4,3.2-23.3,9.7
		c-7.9,6.5-15.5,14.9-22.7,25.3c-7.2,10.4-13.7,21.8-19.4,34.2c-5.7,12.4-10.2,24.6-13.5,36.5c-3.3,11.9-4.9,22.6-4.9,32.2
		c0,10.9,3.1,16.3,9.4,16.3c6.3,0,13.2-3.8,20.8-11.5c7.6-7.7,15.3-17.3,23.1-28.8c7.8-11.6,15.2-23.4,22.3-35.5
		c7.1-12.1,13.2-22.4,18.4-30.9c0.8-1.7,1.9-2.6,3.3-2.6c1.1,0.3,3.2,1.1,6.3,2.3c3.1,1.2,6.1,3,8.8,5.4c2.7,2.4,4.1,5.4,4.1,9.2
		c0,3.4-1.2,7.7-3.5,13c-2.3,5.3-5,11.1-8.2,17.4c-3.1,6.3-5.9,12.6-8.2,18.9c-2.3,6.3-3.5,12.3-3.5,18.1c0,4.4,0.9,8.6,2.9,12.5
		c1.9,3.9,5,5.9,9.4,5.9c6.5,0,15.7-6,27.6-18.1c11.8-12.1,23.9-32.6,36.1-61.5l7.8,9.7c-6.5,18.4-14.4,34.6-23.5,48.8
		c-9.1,14.1-18.7,25.2-28.8,33.2c-10.1,8-20.3,12-30.6,12c-11.2,0-19.5-4.4-24.9-13.3c-5.5-8.8-8.4-18.4-9-28.6c0-0.7,0-1.2,0-1.5
		c0-0.3,0-0.7,0-1c-10.9,16.3-20.9,29.3-30,38.8C1303.4,834.9,1293.7,839.7,1283.4,839.7z M1479,839.2c-12,0-21.6-4.4-29-13.3
		c-7.3-8.9-11-22.3-11-40.3c0-14,2.1-31.3,6.3-52.1c4.2-20.8,9.6-42.2,16.1-64.3c-1.9-0.7-4.2-1.3-6.7-1.8c-2.6-0.5-5.1-1.4-7.6-2.8
		v-15.8c4.3,0.7,8,1.2,10.8,1.5c2.9,0.3,5.8,0.7,8.8,1c5.7-18,11.9-35.5,18.6-52.3c6.7-16.8,13.3-31.9,20-45.2
		c6.7-13.3,13-23.7,19-31.4c6-7.7,11.3-11.5,15.9-11.5c2.7,0,5.3,1.3,7.8,3.8c2.4,2.6,3.7,6.2,3.7,11c0,6.8-2.8,16.5-8.4,29.1
		s-12.5,27.3-20.6,44.2c-8.2,16.8-16.1,34.8-23.7,53.9c2.2,0,4.3,0,6.5,0c2.2,0,4.2,0,6.1,0c12,0,22.8-0.3,32.5-0.8
		c9.7-0.5,19.5-1.4,29.6-2.8v16.8c-15,1.7-28.7,3.1-41.3,4.1c-12.5,1-24.5,1.7-35.9,2c-0.8,0-1.6,0-2.5,0s-1.6,0-2.5,0
		c-5.7,16.7-10.7,33.8-14.9,51.3c-4.2,17.5-6.3,34.6-6.3,51.3c0,14,1.8,23.8,5.3,29.6c3.5,5.8,9.1,8.7,16.7,8.7
		c13.6,0,27.6-7.7,41.9-23.2c14.3-15.5,26.8-36.5,37.4-63l5.7,5.1c-7.1,20.1-15.9,38.3-26.3,54.6c-10.5,16.3-21.9,29.2-34.1,38.5
		C1504.7,834.5,1492.1,839.2,1479,839.2z M1590.5,831c-9.3,0-16.8-5.4-22.7-16.1c-5.9-10.7-8.8-23.1-8.8-37c0-9.5,1.2-20.8,3.7-33.7
		c2.5-12.9,5.7-25.5,9.6-37.8c3.9-12.2,8-22.5,12.3-30.6c4.2-8.2,8.1-12.2,11.6-12.2c1.9,0,4.8,1.3,8.8,3.8
		c3.9,2.6,7.4,5.7,10.4,9.4c-3,5.4-6.6,13.8-10.8,25c-4.2,11.2-8,23.3-11.2,36.2c-3.3,12.9-4.9,24.7-4.9,35.2c0,1.4,0.2,4.6,0.6,9.7
		c0.4,5.1,1.4,9.9,3.1,14.3c1.6,4.4,4.5,6.6,8.6,6.6c4.6,0,9.6-3.1,14.9-9.4c5.3-6.3,10.7-14.5,16.3-24.5c5.6-10,11-20.8,16.3-32.4
		c5.3-11.6,10.1-22.8,14.3-33.7c4.2-10.9,7.7-20.1,10.4-27.6c2.5,0.3,5.7,1.2,9.6,2.6c3.9,1.4,7.4,3.1,10.4,5.4
		c3,2.2,4.5,5.4,4.5,9.4c0,1-1.3,5.2-3.9,12.5c-2.6,7.3-5.6,16.1-9,26.3c-3.4,10.2-6.4,20.7-9,31.4c-2.6,10.7-3.9,20.2-3.9,28.3
		c0,4.8,0.7,8.9,2.2,12.5c1.5,3.6,4.4,5.4,8.8,5.4c5.7,0,12.5-3.2,20.4-9.7c7.9-6.5,16.1-15.8,24.5-28.1
		c8.4-12.2,15.9-26.9,22.5-43.9l6.1,6.1c-6,18.4-13.7,34.9-23.3,49.5c-9.5,14.6-19.7,26.1-30.6,34.5c-10.9,8.3-21.5,12.5-31.9,12.5
		c-7.9,0-13.8-2.3-17.8-6.9c-4-4.6-6.6-10.5-8-17.9c-1.4-7.3-2.2-14.7-2.5-22.2c0-1.7,0-3.5,0-5.4c0-1.9,0-3.5,0-4.9
		c-4.6,9.2-9.7,18.1-15.1,26.8c-5.5,8.7-11.2,15.9-17.4,21.7C1603.8,828.1,1597.3,831,1590.5,831z M1815.1,829
		c-10.1,0-18.2-3.3-24.5-10c-6.3-6.6-9.4-15.6-9.4-26.8c0-9.5,1.9-19.7,5.7-30.6c3.8-10.9,7.7-21.6,11.6-32.2
		c3.9-10.5,5.9-19.9,5.9-28.1c0-7.8-2-14.4-6.1-19.7c-4.1-5.3-8.9-9.6-14.3-13c-6,18.7-12.7,36.8-20.2,54.4
		c-7.5,17.5-14.9,31.2-19.5,41l-4.2-12.9c3.8-8.8,8.2-23.3,14.5-39.6c6.3-16.3,12.2-34.5,18-54.6c-2.7-3.4-4.1-8-4.1-13.8
		c0-8.8,2.2-17.2,6.5-25c4.3-7.8,8.6-11.7,12.7-11.7c3.3,0,5.7,2.3,7.1,6.9c1.5,4.6,2.2,7.7,2.2,9.4s-0.6,4.8-1.8,9.2
		c-1.2,4.4-2.1,7.7-2.7,9.7c0.3,3.7,2.7,7.4,7.1,11c4.5,3.6,9.6,7.7,15.3,12.5c5.7,4.8,10.7,10.7,15.1,17.9
		c4.3,7.1,6.5,16.2,6.5,27.1c0,9.9-1.8,19.9-5.3,30.1c-3.5,10.2-7.1,19.7-10.6,28.6c-3.5,8.9-5.3,16.5-5.3,23c0,4.8,1,7.9,3.1,9.4
		c2,1.5,4.4,2.3,7.1,2.3c6.5,0,13.3-2.5,20.4-7.4c7.1-4.9,14-11.3,20.8-19.1c6.8-7.8,12.8-16.1,18-24.8c5.2-8.7,9.1-16.6,11.8-23.7
		l9.8,9.2c-5.2,14.6-12.7,29-22.5,43.1c-9.8,14.1-20.7,25.7-32.7,34.7C1839.5,824.4,1827.4,829,1815.1,829z M1935.2,838.1
		c-17.4,0-30.8-5.9-40.2-17.6c-9.4-11.7-14.1-26.5-14.1-44.2c0-15,3.1-30.9,9.2-47.7c6.1-16.8,14.4-32.7,24.7-47.5
		c10.3-14.8,21.8-26.8,34.3-36c12.5-9.2,25-13.8,37.6-13.8c7.1,0,13.8,2.3,20.2,6.9c6.4,4.6,9.6,13.7,9.6,27.3c0,12.9-3,25-9,36.2
		c-6,11.2-14,21.3-24.1,30.1c-10.1,8.9-21.2,16.1-33.3,21.7c-12.1,5.6-24.3,9.3-36.6,11c-0.3,1.4-0.5,2.8-0.6,4.3
		c-0.1,1.5-0.2,4-0.2,7.4c0,1.7,0.2,4.7,0.6,8.9c0.4,4.3,1.6,8.8,3.5,13.5c1.9,4.8,5,8.9,9.4,12.3c4.3,3.4,10.3,5.1,18,5.1
		c11.4,0,22.9-4,34.5-12c11.6-8,22.5-18.6,32.7-31.9c10.2-13.3,18.7-28.1,25.5-44.4l8.2,8.2c-7.4,20.4-16.8,38.3-28.4,53.6
		c-11.6,15.3-24.4,27.2-38.4,35.7C1964.2,833.9,1949.9,838.1,1935.2,838.1z M1918,745.7c7.1-1,15-4.1,23.7-9.2
		c8.7-5.1,17.1-11.6,25.1-19.4c8-7.8,14.6-16.4,19.8-25.8c5.2-9.4,7.8-18.8,7.8-28.3c0-3.7-0.6-6.3-1.6-7.7c-1.1-1.4-2.9-2-5.3-2
		c-6.3,0-12.8,2.8-19.6,8.4c-6.8,5.6-13.5,12.9-20,22c-6.5,9-12.4,19-17.6,29.9C1925.1,724.5,1921,735.2,1918,745.7z M1197.2,839.3
		c-11.8,0-20.5-5.5-25.9-16.4c-5.4-10.9-8.1-24-8.1-39.2c0-12.7,1.3-25.3,3.8-38c2.5-12.7,5.1-25.1,7.6-37.3
		c2.5-12.2,4.3-23.1,4.9-32.8c0.7-10.1,0.7-20.6-2.1-26c-2.3-4.5-7.4-5.3-11.1-5.3c-8.5,0-20.2,13.8-30.2,33.6
		c-10,19.8-22.9,47.7-38.8,83.7c-5.4,12.2-10,24.5-13.7,36.9c-3.7,12.4-7.3,23.7-10.7,33.8c-2.7,0-6.1-0.5-10.1-1.5
		c-4.1-1-7.7-2.7-10.9-5c-3.2-2.3-4.8-5.2-4.8-8.7s1.6-12,4.8-25.5c3.2-13.4,6.9-29.2,11.2-47.1c4.2-18,7.9-36.2,11.2-54.8
		c3.2-18.5,6.4-35.3,8-48.8c1.1-9.5,2.9-24.3,1.3-30.5c-1.4-5.5-8.1-8.7-12.7-7.9c-7.4,1.3-20.9,17.6-31.3,31
		c-10.5,13.4-21.3,31.1-32.4,52.9c-11.2,21.8-21.7,45.8-31.7,71.9c-10,26.1-18,52.1-24.1,77.9c-3,0-6.8-0.8-11.2-2.3
		c-4.4-1.5-8.2-3.6-11.4-6.1c-3.2-2.5-4.8-5.1-4.8-7.6c0-3,1.8-12,5.3-27c3.6-15,7.6-32.9,12.2-54c4.6-21,8.6-42.5,12.2-64.3
		c3.6-21.8,5.3-41.1,5.3-57.8c2-3.5,5.2-7.1,9.6-10.7c4.4-3.5,9-5.3,13.7-5.3c4.7,0,8.2,1.8,10.4,5.3c2.2,3.6,3.3,8.4,3.3,14.4
		c0,6.6-1.3,17.9-3.8,33.8c-2.5,16-5.7,33.6-9.4,52.9c6.8-16.2,14.4-32.8,23.1-49.8c8.6-17,17.7-32.6,27.1-46.8
		c9.5-14.2,19-25.7,28.6-34.6c9.6-8.9,19-13.3,28.1-13.3c10.5,0,17.7,5.7,21.5,17.1c3.9,11.4,5.8,25,5.8,40.7
		c0,12.7-0.9,26-2.8,39.9c-1.9,14-4,26.9-6.3,38.8c-2.4,11.9-4.6,21.4-6.6,28.5c7.1-19.3,15-37.9,23.6-55.9
		c8.6-18,18-32.7,28.1-44.1c10.1-11.4,21-17.1,32.4-17.1c10.8,0,18.3,4.8,22.6,14.4c4.2,9.6,6.3,21,6.3,34.2
		c0,13.2-1.5,27.6-4.6,43.4c-3,15.7-6.2,30.9-9.4,45.6c-3.2,14.7-4.8,27.4-4.8,38c0,6.6,1.1,12.5,3.3,17.9c2.2,5.3,6.2,8,11.9,8
		c9.5,0,18.3-6.5,26.6-19.4c8.3-12.9,16-28.6,23.1-47.1c7.1-18.5,22.6-30.4,27.7-47.6v12.1c-5.4,21.3-15.7,35-24.1,56
		c-8.5,21-18.3,38.4-29.7,52.1C1223.1,832.4,1210.7,839.3,1197.2,839.3z"/>
</g>

</svg>
