<?xml version="1.0" encoding="utf-8"?>
<!-- Generator: Adobe Illustrator 26.0.3, SVG Export Plug-In . SVG Version: 6.00 Build 0)  -->
<svg version="1.1" id="thinLine" xmlns="http://www.w3.org/2000/svg" xmlns:xlink="http://www.w3.org/1999/xlink" x="0px" y="0px"
	 viewBox="0 0 410 120" style="enable-background:new 0 0 410 120;" xml:space="preserve">
<style type="text/css">
	.st0{fill:none;stroke:#fff;stroke-width:3.5;stroke-linecap:round;stroke-linejoin:round;stroke-miterlimit:10;}
</style>
<path class="st0" d="M190.26,51.32 M127.83,84.13c-2.65,4.96-6.14,10.54-9.78,15.34c-6.89,9.08-13.28,12.7-19,10.76
	c-8.36-2.85-5.66-19.79-3.05-36.17c2.46-15.45,4.79-30.05-1.7-32.84c-1.2-0.52-2.55-0.47-4.01,0.14
	c-14.41,6.01-36.35,64.72-38.81,71.39c-0.76,2-0.87,2.25-0.99,2.25c-0.02,0-0.04-0.01-0.06-0.01c-0.18-0.05-0.18-0.05,1.1-4.55
	c2.39-8.39,7.97-28.04,11.16-46.26c3.97-22.64,2.98-35.52-2.92-38.29c-1.38-0.65-2.94-0.64-4.65,0.01
	c-16.83,6.45-44.31,73.67-49.65,87.08c-0.09,0.24-0.16,0.39-0.2,0.49c-0.01,0.04-0.02,0.06-0.03,0.07H5.23
	c-0.06,0.12-0.09,0.11-0.16,0.08c-0.07-0.03-0.1-0.04-0.07-0.17l0,0c0-0.01,0.01-0.02,0.02-0.04c0.03-0.08,0.07-0.2,0.13-0.37
	c3.11-8.25,14.67-49.32,14.63-80.47 M197.35,68.33c-2.38,6.82-5.19,13.97-8.04,20.77c-3.16,7.53-11.13,18.77-18.95,20.16
	c-3.07,0.54-5.86-0.45-8.28-2.98c-5.09-5.3-2.52-15.32,0.53-22.78c0.72-1.77,1.26-3.61,2.04-5.21 M404.78,78.07 M202.12,53.8
	c-0.96,2.7-2.01,5.77-3,8.65c-0.05,0.14-0.1,0.29-0.15,0.43c-1.44,4.62-2.57,8.74-3.22,11.98c-3.71,18.51-3.12,28.6,1.98,33.73
	c1.81,1.82,5.93,2.49,10.48,1.69c10.26-1.79,19.41-9.57,24.47-20.81c4.65-10.35,8.21-18.74,10.63-24.62
	c2.1-5.42,3.78-9.43,3.82-9.53c0,0-1.07,3.54-3.58,9.63c-3.23,8.37-7.45,20.09-8.13,25.97c-0.69,5.95,0.44,11.13,3.1,14.19
	c1.4,1.62,3.17,2.53,5.11,2.64c0.15,0.01,0.3,0.01,0.45,0.01c11.65,0,21.19-25.52,28.88-46.08l1.01-2.7c0,0-10.92,46.33-4,49.34
	c3.87,1.68,9.04-0.14,14.55-5.12c5.24-4.73,10.34-11.97,14.02-19.87c5.01-10.76,10.79-24.29,13.64-33.95
	c-0.98-0.91-1.89-1.63-2.28-2.22c-1.23-1.84,0.8-7.34,2.29-9.15c0.48-0.59,0.91-0.82,1.25-0.7c0.52,0.18,0.75,1.1,0.72,2.81
	c-0.04,2.22-0.86,5.45-1.98,9.26c0.63,0.58,1.48,1.2,2.24,1.88c3.88,3.47,8.71,7.78,9.94,11.55c1.34,2.31-0.82,8.47-3.32,15.6
	c-3.71,10.59-7.92,22.58-1.92,25.59c4.84,2.43,7.84,0.38,15.84-5.08c3.82-2.61,15.72-10.07,15.99-10.23c0.7-3.37,1.79-6.6,2.85-9.28
	c2.75-6.96,6.94-14.26,11.23-19.55c7.64-9.43,16.26-13.06,21.32-13.31c1.42-0.07,2.48,0.15,2.92,0.59c0.82,0.83,1.14,2.16,0.91,3.86
	c-0.98,7.35-12.02,21.48-39.23,37.69c-0.8,3.86-0.87,8.04-0.03,11.61c0.94,4.01,3.19,6.89,6.7,8.57c4.84,2.32,10.78,2.27,17.19-0.13
	c5.98-2.24,12-6.35,17.43-11.87c5.48-5.58,9.81-12.08,12.54-18.8 M202.2,54.05c-0.05,0-0.11-0.01-0.16-0.01 M202.96,55.35
	 M190.26,51.32c2.73,1.25,7.07,2.09,11.86,2.48c7.46-21.39,18.31-47.31,21.14-48.73c0.16-0.08,0.31-0.1,0.44-0.04
	c0.16,0.07,0.28,0.21,0.35,0.4c0.75,2.11-4.66,12.18-9.89,21.92c-3.06,5.7-5.95,11.07-7.5,14.64c-1.47,3.38-2.98,7.42-4.54,11.81
	c9.15,0.7,21.27-0.14,33.81-2.5 M127.83,84.13c-0.4,1.02-0.79,2.06-1.15,3.13c-2.59,7.65-4.21,17.77,2.77,22.48
	c1.58,1.06,3.43,1.35,5.52,0.86c10.37-2.45,24.42-23.6,31.32-34.97c2.19-4.13,4.06-6.99,4.17-7.16c0.07-0.18,3.91-10.31-3.53-17.52
	c-5.54-3.54-11.95-2.23-19.04,3.91c-5.8,5.02-10.5,11.88-13.02,15.56c-0.3,0.43-0.56,0.82-0.79,1.14c-0.02,0.04-0.25,0.4-0.62,1.03
	c-0.51,0.94-1.2,2.31-2.05,4c-0.71,1.43-1.54,3.09-2.47,4.89C128.56,82.34,128.19,83.22,127.83,84.13"/>
</svg>
